<svg xmlns="http://www.w3.org/2000/svg" width="553.659" height="598.224" viewBox="0 0 553.659 598.224">
    <g>
        <path fill="#fff" stroke="rgba(0,0,0,0)" stroke-miterlimit="10" d="M-1146.839-4691.182a2 2 0 0 1 2-2 2 2 0 0 1 2 2 2 2 0 0 1-2 2 2 2 0 0 1-2-2zm-79.908-.154a1.477 1.477 0 0 1-.025-2.328 1.436 1.436 0 0 1 2.046-.127 1.524 1.524 0 0 1 .468 2.121 1.989 1.989 0 0 1-1.423.8 1.628 1.628 0 0 1-1.066-.466zm31.824-5.3a1.578 1.578 0 0 1-.363-2.592 1.532 1.532 0 0 1 2.351-.2 1.582 1.582 0 0 1 .345 2.332 1.738 1.738 0 0 1-1.352.789 1.787 1.787 0 0 1-.98-.334zm-80.432-1.949a1.436 1.436 0 0 1-.128-2.046 1.528 1.528 0 0 1 2.122-.468c.988.893 1.014 1.712.334 2.49a1.49 1.49 0 0 1-1.125.58 1.8 1.8 0 0 1-1.202-.56zm110.737-3.256a1.906 1.906 0 0 1-.28-3.014 1.9 1.9 0 0 1 2.777-.134 2.172 2.172 0 0 1 .417 2.668 2.807 2.807 0 0 1-1.819.884 1.755 1.755 0 0 1-1.094-.408zm-80.181-1.615a1.908 1.908 0 0 1-.287-3.015 1.9 1.9 0 0 1 2.776-.142 2.154 2.154 0 0 1 .419 2.666 2.781 2.781 0 0 1-1.816.891 1.757 1.757 0 0 1-1.093-.404zm110.7-3.8a1.9 1.9 0 0 1-.2-3.016 1.892 1.892 0 0 1 2.776-.073 2.058 2.058 0 0 1 .231 2.784 2.632 2.632 0 0 1-1.666.747 1.748 1.748 0 0 1-1.142-.451zm-79.95-2.068a2.1 2.1 0 0 1-.472-3.056 2.141 2.141 0 0 1 3.32-.518 2.257 2.257 0 0 1 .5 3.109 2.63 2.63 0 0 1-1.908 1.015 2.343 2.343 0 0 1-1.438-.559zm-79.054-1.518a1.582 1.582 0 0 1-.327-2.6 1.538 1.538 0 0 1 2.358-.158 1.577 1.577 0 0 1 .309 2.334 1.752 1.752 0 0 1-1.344.769 1.78 1.78 0 0 1-.993-.353zm190.364-1.595a1.544 1.544 0 0 1-.357-2.329 1.594 1.594 0 0 1 2.61-.264 1.586 1.586 0 0 1 .107 2.374 1.775 1.775 0 0 1-1.276.648 1.764 1.764 0 0 1-1.081-.437zm-80.018-1.663a2.163 2.163 0 0 1-.564-3.365 2.129 2.129 0 0 1 3.073-.646 2.254 2.254 0 0 1 .857 3.334 2.511 2.511 0 0 1-1.955 1.177 2.493 2.493 0 0 1-1.409-.508zm-80.174-1.646a2.254 2.254 0 0 1-.465-3.342 2.1 2.1 0 0 1 3.056-.472 2.141 2.141 0 0 1 .518 3.32 2.043 2.043 0 0 1-1.678.889 3.156 3.156 0 0 1-1.429-.403zm110.495-3.919a2.179 2.179 0 0 1-.139-3.418 2.13 2.13 0 0 1 3.132-.25 2.254 2.254 0 0 1 .439 3.41 2.55 2.55 0 0 1-1.835.938 2.451 2.451 0 0 1-1.595-.688zm-79.739-2.155a2.2 2.2 0 0 1-.365-3.373 2.266 2.266 0 0 1 3.359-.522 2.26 2.26 0 0 1 .624 3.36 2.372 2.372 0 0 1-1.933 1.216 2.772 2.772 0 0 1-1.683-.69zm-79.7-1.814a1.9 1.9 0 0 1-.419-3 1.9 1.9 0 0 1 2.766-.26 2.127 2.127 0 0 1 .5 2.677 2.559 2.559 0 0 1-1.792.935 1.847 1.847 0 0 1-1.053-.361zm190.145-1.4a2.148 2.148 0 0 1-.244-3.355 2.25 2.25 0 0 1 3.146-.234c.988 1.054 1.219 2.256.187 3.366a2.266 2.266 0 0 1-1.653.8 2.214 2.214 0 0 1-1.434-.588zm-79.662-1.836c-1.5-1.239-1.659-2.537-.59-3.862a2.285 2.285 0 0 1 3.437-.406 2.348 2.348 0 0 1 .448 3.711 2.3 2.3 0 0 1-1.841.986 2.968 2.968 0 0 1-1.452-.44zm-79.6-1.485a2.168 2.168 0 0 1-.427-3.388 2.13 2.13 0 0 1 3.1-.515 2.253 2.253 0 0 1 .831 3.227 2.749 2.749 0 0 1-2.056 1.225 2.421 2.421 0 0 1-1.451-.561zm191-2.262c-.893-.963-1.212-2.064-.385-3.112a2.057 2.057 0 0 1 3.057-.4 2.059 2.059 0 0 1 .406 3.057 2.056 2.056 0 0 1-1.663.867 2.967 2.967 0 0 1-1.423-.424zm-80.592-1.208a2.625 2.625 0 0 1-.553-3.794 2.67 2.67 0 0 1 4.061-.6 2.848 2.848 0 0 1 .622 3.811 3.411 3.411 0 0 1-2.408 1.232 2.777 2.777 0 0 1-1.729-.661zm-79.561-2.142a2.642 2.642 0 0 1-.626-4.049 2.813 2.813 0 0 1 3.83-.613 2.813 2.813 0 0 1 .8 3.779 2.717 2.717 0 0 1-2.318 1.449 2.994 2.994 0 0 1-1.693-.578zm-79.772-2.087a2.055 2.055 0 0 1-.67-3.008 2.057 2.057 0 0 1 3.008-.674c1.143.7 1.211 1.845.711 3.052a2.519 2.519 0 0 1-1.869 1 2.213 2.213 0 0 1-1.187-.383zm270.857-.332a1.594 1.594 0 0 1-.264-2.609 1.551 1.551 0 0 1 2.367-.1 1.579 1.579 0 0 1 .384 2.19 2.056 2.056 0 0 1-1.5.88 1.7 1.7 0 0 1-.995-.375zm-80.869-.754a2.672 2.672 0 0 1-.493-4.077 2.825 2.825 0 0 1 3.845-.5c1.264 1.253 1.605 2.733.457 4.119a2.756 2.756 0 0 1-2.116 1.073 2.762 2.762 0 0 1-1.701-.628zm-79.674-1.984a2.827 2.827 0 0 1-.777-4.375 2.8 2.8 0 0 1 4.133-.605c1.46 1.05 1.557 2.565.787 4.159a3.488 3.488 0 0 1-2.539 1.338 2.91 2.91 0 0 1-1.612-.53zm-80.007-2.048a2.327 2.327 0 0 1-.572-3.686 2.34 2.34 0 0 1 3.726-.3 2.343 2.343 0 0 1 .388 3.348 2.778 2.778 0 0 1-2.069 1.163 2.587 2.587 0 0 1-1.481-.538zm190.933-2.154a2.327 2.327 0 0 1-.582-3.685 2.337 2.337 0 0 1 3.723-.314 2.344 2.344 0 0 1 .4 3.341 2.805 2.805 0 0 1-2.084 1.175 2.568 2.568 0 0 1-1.464-.53zm-80.489-1.093c-1.47-1.271-1.938-2.812-.761-4.453a2.833 2.833 0 0 1 4.138-.77 2.874 2.874 0 0 1 .821 4.406 2.762 2.762 0 0 1-2.337 1.293 4.371 4.371 0 0 1-1.868-.489zm-79.19-1.964c-1.264-1.243-1.681-2.7-.66-4.182a2.8 2.8 0 0 1 4.1-.823 2.827 2.827 0 0 1 .741 4.381 2.736 2.736 0 0 1-2.24 1.18 4.091 4.091 0 0 1-1.948-.573zm190.921-2.068a2.125 2.125 0 0 1-.714-3.058 2.259 2.259 0 0 1 3.315-.932c1.239.9 1.617 2.046.751 3.356a2.24 2.24 0 0 1-1.856 1.165 2.673 2.673 0 0 1-1.503-.544zm-270.873-.382a2.1 2.1 0 0 1-.184-3.092 2.149 2.149 0 0 1 3.359-.2 2.248 2.248 0 0 1 .188 3.154 2.774 2.774 0 0 1-1.818.829 2.221 2.221 0 0 1-1.553-.704zm190.242-.6c-1.411-1.318-1.832-2.879-.59-4.472a2.833 2.833 0 0 1 4.165-.612 2.878 2.878 0 0 1 .658 4.436 2.788 2.788 0 0 1-2.275 1.207 4.2 4.2 0 0 1-1.966-.571zm-79.8-2.323a2.877 2.877 0 0 1-.605-4.389c1.192-1.584 2.761-1.65 4.437-.644 1.393 1.327 1.765 2.854.558 4.43a3.038 3.038 0 0 1-2.4 1.356 3.308 3.308 0 0 1-2.003-.765zm-79.681-1.665c-1.559-.9-1.752-2.406-1-4.028a2.829 2.829 0 0 1 3.776-.866 2.674 2.674 0 0 1 .955 3.995 2.6 2.6 0 0 1-2.238 1.321 3 3 0 0 1-1.506-.434zm270.839-.466a2.222 2.222 0 0 1-.627-3.048 2.06 2.06 0 0 1 3.012-.669 2.06 2.06 0 0 1 .667 3.01 1.943 1.943 0 0 1-1.734 1.006 3.463 3.463 0 0 1-1.331-.312zm-80.391-1.693a2.884 2.884 0 0 1-.456-4.465c1.154-1.363 2.69-1.412 4.269-.449 1.333 1.377 1.7 2.962.379 4.49a3.024 3.024 0 0 1-2.28 1.158 3.051 3.051 0 0 1-1.925-.746zm-80.017-1.183c-1.822-1.118-2.163-2.771-1.143-4.712 1.283-1.654 2.906-2.151 4.7-.934a3.066 3.066 0 0 1 .858 4.708 3.125 3.125 0 0 1-2.569 1.517 3.53 3.53 0 0 1-1.859-.59zm-79.945-2.723a2.891 2.891 0 0 1-.38-4.473c1.189-1.367 2.721-1.3 4.173-.491 1.407 1.512 1.76 3.1.408 4.609a3.055 3.055 0 0 1-2.263 1.121 3.023 3.023 0 0 1-1.951-.78zm271.568-1.085a1.467 1.467 0 0 1-.161-2.315 1.419 1.419 0 0 1 2.028-.249 1.482 1.482 0 0 1 .459 2.254 1.716 1.716 0 0 1-1.288.733 1.659 1.659 0 0 1-1.051-.435zm-80.995-.564s-1.594-2.785-.41-4.176a2.77 2.77 0 0 1 3.894-.5c1.5 1.073 1.475 2.61.844 4.074a3.678 3.678 0 0 1-2.558.812 7.99 7.99 0 0 1-1.782-.222zm-270.088-.462a2.118 2.118 0 0 1-.781-3 2.316 2.316 0 0 1 3.11-1.007c1.22.958 1.556 2.047.93 3.172a2.161 2.161 0 0 1-1.892 1.26 2.663 2.663 0 0 1-1.38-.437zm189.747-.743a3.072 3.072 0 0 1-.662-4.741 3.03 3.03 0 0 1 4.452-.75c1.8 1.2 2.028 2.86.966 4.726a3.6 3.6 0 0 1-2.713 1.522 3.456 3.456 0 0 1-2.056-.77zm-79.015-1.75a3.029 3.029 0 0 1-1.006-4.4 3.079 3.079 0 0 1 4.638-1.2c1.841 1.124 2.1 2.8 1.14 4.653a3.647 3.647 0 0 1-2.795 1.635 3.529 3.529 0 0 1-1.99-.698zm-79.7-1.931a2.67 2.67 0 0 1-.918-4 2.631 2.631 0 0 1 3.737-.864c1.549.915 1.733 2.422.966 4.03a3.162 3.162 0 0 1-2.364 1.253 2.763 2.763 0 0 1-1.431-.431zm270.721-.12c-1.5-1.238-1.658-2.536-.593-3.86a2.288 2.288 0 0 1 3.44-.408 2.347 2.347 0 0 1 .447 3.711 2.3 2.3 0 0 1-1.838.987 2.978 2.978 0 0 1-1.466-.442zm-80.243-1.7a3.069 3.069 0 0 1-.858-4.71 3.031 3.031 0 0 1 4.415-.941c1.822 1.119 2.164 2.772 1.148 4.711a3.553 3.553 0 0 1-2.752 1.613 3.491 3.491 0 0 1-1.962-.683zm-80.306-1.421a3.357 3.357 0 0 1-.881-5.105c1.216-1.684 3.029-1.8 4.867-.906 1.6 1.372 2.133 3.115 1.072 4.869a3.443 3.443 0 0 1-2.94 1.84 3.828 3.828 0 0 1-2.127-.708zm-79.489-2.615a2.877 2.877 0 0 1-.873-4.343 2.879 2.879 0 0 1 4.344-.876c1.659 1.093 1.811 2.655.928 4.371a3.455 3.455 0 0 1-2.6 1.46 3.225 3.225 0 0 1-1.808-.622zm271.15-.533a2.253 2.253 0 0 1-.591-3.325 2.1 2.1 0 0 1 3.034-.592 2.14 2.14 0 0 1 .64 3.3 2.041 2.041 0 0 1-1.732.957 3.233 3.233 0 0 1-1.36-.35zm-81.02-1.162a2.919 2.919 0 0 1-.412-4.437c1.245-1.582 2.811-1.542 4.317-.7 1.585 1.431 1.952 2.955.776 4.559a3.118 3.118 0 0 1-2.493 1.478 3.487 3.487 0 0 1-2.196-.911zm-80.415-1.2a3.455 3.455 0 0 1-.708-4.926c1.314-1.853 3.23-1.969 5.212-.966 1.591 1.6 2.114 3.486.71 5.274a3.632 3.632 0 0 1-2.85 1.525 3.768 3.768 0 0 1-2.372-.913zm-189.516.45c-.89-.965-1.21-2.066-.379-3.111a2.058 2.058 0 0 1 3.058-.4 2.058 2.058 0 0 1 .4 3.058 2.054 2.054 0 0 1-1.66.864 2.957 2.957 0 0 1-1.428-.417zm110.2-2.631c-1.622-1.256-2.159-2.924-1.027-4.738a3.186 3.186 0 0 1 4.737-1.11 3.183 3.183 0 0 1 1.112 4.737 3.155 3.155 0 0 1-2.739 1.677 4.641 4.641 0 0 1-2.096-.572zm271.57-1.427a1.6 1.6 0 0 1-.229-2.615 1.562 1.562 0 0 1 2.372-.063 1.57 1.57 0 0 1 .322 2.225 2 2 0 0 1-1.454.832 1.711 1.711 0 0 1-1.019-.385zm-81.146-.631a2.838 2.838 0 0 1-.542-4.177 2.882 2.882 0 0 1 4.448-.585c1.4 1.117 1.48 2.649.572 4.25a3.631 3.631 0 0 1-2.54 1.279 3.055 3.055 0 0 1-1.95-.774zm-270.464-.289a2.625 2.625 0 0 1-.553-3.794 2.666 2.666 0 0 1 4.059-.594c1.253.973 1.355 2.4.577 3.856a3.322 3.322 0 0 1-2.353 1.188 2.789 2.789 0 0 1-1.742-.662zm190.53-1.156c-1.67-1.636-2.2-3.471-.937-5.31a3.5 3.5 0 0 1 5.118-1.019 3.532 3.532 0 0 1 .94 5.405 3.381 3.381 0 0 1-2.833 1.495 5.476 5.476 0 0 1-2.299-.577zm-79.8-1.5a3.516 3.516 0 0 1-.528-5.2c1.4-1.739 3.312-1.738 5.148-.808 1.628 1.669 2.167 3.534.822 5.324a3.748 3.748 0 0 1-2.975 1.669 3.859 3.859 0 0 1-2.475-.99zm-79-2.341c-1.6-1.187-2.124-2.688-1.093-4.38a2.942 2.942 0 0 1 4.606-1 2.9 2.9 0 0 1 .826 4.368 2.937 2.937 0 0 1-2.5 1.512 4.107 4.107 0 0 1-1.852-.503zm270.9-.138c-1.612-.866-1.76-2.445-1.094-4.125 1.15-1.349 2.6-1.812 4.142-.855a2.753 2.753 0 0 1 .977 3.8 2.71 2.71 0 0 1-2.442 1.61 3.362 3.362 0 0 1-1.601-.435zm-80.828-1.149a3.47 3.47 0 0 1-.87-5.173 3.454 3.454 0 0 1 4.884-.955c1.943 1.207 2.073 3.141 1.245 5.148a4.452 4.452 0 0 1-3.2 1.685 3.573 3.573 0 0 1-2.076-.71zm-80.529-1.507c-1.646-1.715-2.14-3.672-.562-5.559a3.605 3.605 0 0 1 5.51-.488 3.578 3.578 0 0 1 .591 5.224 3.627 3.627 0 0 1-2.953 1.623 5.234 5.234 0 0 1-2.603-.809zm-189.13.393c-1.114-.967-1.451-2.055-.76-3.163a2.058 2.058 0 0 1 3.011-.67 2.068 2.068 0 0 1 .676 3.011 1.928 1.928 0 0 1-1.775 1 4.491 4.491 0 0 1-1.169-.18zm109.926-2.737a3.332 3.332 0 0 1-1.225-4.76c1.123-2.024 3.013-2.22 5.038-1.384 1.63 1.339 2.225 3.039 1.21 4.847a3.373 3.373 0 0 1-2.958 1.916 4.066 4.066 0 0 1-2.082-.625zm271.141-1.032a2.251 2.251 0 0 1-.439-3.41 2.247 2.247 0 0 1 3.432-.259 2.181 2.181 0 0 1 .139 3.42 2.21 2.21 0 0 1-1.643.817 2.456 2.456 0 0 1-1.506-.574zm-80.769-.72a3.18 3.18 0 0 1-.787-4.8c1.25-1.747 2.989-1.868 4.745-.892 1.694 1.47 2.088 3.17.84 4.906a3.3 3.3 0 0 1-2.673 1.545 3.651 3.651 0 0 1-2.142-.765zm-270.314-.627a2.67 2.67 0 0 1-.495-4.075 2.825 2.825 0 0 1 3.847-.5c1.263 1.253 1.6 2.734.456 4.119a2.751 2.751 0 0 1-2.114 1.073 2.76 2.76 0 0 1-1.711-.623zm190.465-1.143a3.591 3.591 0 0 1-1.156-5.4 3.6 3.6 0 0 1 5.4-1.164c2.118 1.334 2.168 3.31 1.424 5.2a4.7 4.7 0 0 1-3.506 2.084 3.944 3.944 0 0 1-2.18-.726zm-80.406-1.828a3.571 3.571 0 0 1-.9-5.176c1.358-2.053 3.331-2.213 5.479-1.145 1.762 1.618 2.337 3.536.882 5.516a3.732 3.732 0 0 1-3 1.717 4.137 4.137 0 0 1-2.479-.919zm272.015-1.569a1.6 1.6 0 0 1-.229-2.615 1.558 1.558 0 0 1 2.372-.063 1.58 1.58 0 0 1 .2 2.364 1.754 1.754 0 0 1-1.3.7 1.758 1.758 0 0 1-1.061-.392zm-80.565-.97c-1.514-1.228-1.974-2.735-.875-4.394a2.939 2.939 0 0 1 4.639-.818 2.9 2.9 0 0 1 .645 4.4 2.938 2.938 0 0 1-2.43 1.406 4.09 4.09 0 0 1-1.997-.601zm-270.733-.208c-1.614-1.172-1.747-2.718-.781-4.413 1.239-1.51 2.749-1.954 4.4-.848a2.941 2.941 0 0 1 .783 4.647 2.986 2.986 0 0 1-2.386 1.354 3.466 3.466 0 0 1-2.034-.747zm189.945-1.086a3.6 3.6 0 0 1-.523-5.506 3.576 3.576 0 0 1 5.22-.624c1.966 1.466 2.05 3.438.858 5.535a4.683 4.683 0 0 1-3.176 1.541 3.706 3.706 0 0 1-2.396-.953zm-78.988-.561c-2.231-1.7-2.86-3.55-1.524-5.661 1.418-2.244 3.473-2.716 5.684-1.18 2.034 1.413 2.365 3.374 1 5.444a3.652 3.652 0 0 1-3.136 1.867 5.093 5.093 0 0 1-2.041-.477zm-189.672-.336a2.06 2.06 0 0 1-.727-2.694 1.889 1.889 0 0 1 2.631-.881 1.9 1.9 0 0 1 .84 2.9 1.726 1.726 0 0 1-1.578.912 3.3 3.3 0 0 1-1.184-.244zm109.528-2.659a3.457 3.457 0 0 1-.767-4.919c1.292-1.877 3.209-2 5.211-1.02 1.6 1.577 2.142 3.454.764 5.26a3.607 3.607 0 0 1-2.864 1.559 3.81 3.81 0 0 1-2.358-.887zm271.153-.365a2.824 2.824 0 0 1-.437-4.419 2.806 2.806 0 0 1 4.173-.29 3.039 3.039 0 0 1 .459 4.212 3.719 3.719 0 0 1-2.459 1.148 2.769 2.769 0 0 1-1.754-.657zm-80.646-.962a3.528 3.528 0 0 1-.919-5.153 3.571 3.571 0 0 1 5.42-.97c1.829 1.3 1.944 3.21.978 5.235a4.474 4.474 0 0 1-3.222 1.7 3.828 3.828 0 0 1-2.278-.819zm-269.835-1.056a2.335 2.335 0 0 1-.575-3.687c.924-1.233 2.13-1.333 3.486-.517a2.385 2.385 0 0 1 .506 3.674 2.365 2.365 0 0 1-1.885 1.072 2.7 2.7 0 0 1-1.55-.549zm190.078-.95c-2.194-1.55-2.52-3.607-.922-5.743 1.621-2.167 3.72-2.3 5.782-.656 1.957 1.559 1.988 3.507.621 5.591a4.148 4.148 0 0 1-3.092 1.666 4.147 4.147 0 0 1-2.407-.865zm-80.03-1.653a3.6 3.6 0 0 1-1.163-5.4c1.333-2.119 3.312-2.168 5.2-1.422 2.113 1.731 2.717 3.6 1.366 5.665a3.71 3.71 0 0 1-3.1 1.916 4.257 4.257 0 0 1-2.321-.766zm271.623-.975c-1.349-.95-1.776-2.077-.983-3.391a2.249 2.249 0 0 1 3.571-.79 2.2 2.2 0 0 1 .611 3.337 2.287 2.287 0 0 1-1.927 1.181 2.831 2.831 0 0 1-1.29-.344zm-80.772-1.532a3.466 3.466 0 0 1-.678-5.2 3.454 3.454 0 0 1 4.916-.769c1.876 1.293 2 3.208 1.02 5.211a4.494 4.494 0 0 1-3.114 1.55 3.5 3.5 0 0 1-2.162-.798zm-270.131-.375a2.9 2.9 0 0 1-1-4.322c1.054-1.75 2.651-1.72 4.1-1.243 1.788 1.406 2.28 2.9 1.224 4.575a2.965 2.965 0 0 1-2.5 1.575 3.44 3.44 0 0 1-1.842-.591zm189.6-.98c-2.12-1.663-2.217-3.768-.584-5.812 1.548-1.931 3.538-2.123 5.523-.68 2.177 1.584 2.307 3.6.888 5.81a4.276 4.276 0 0 1-3.185 1.731 4.3 4.3 0 0 1-2.664-1.056zm-79.5-2.091c-2.19-1.521-2.53-3.575-.992-5.748a3.674 3.674 0 0 1 5.457-1.077c2.271 1.434 2.551 3.431 1.409 5.59a4.5 4.5 0 0 1-3.452 2.1 4.256 4.256 0 0 1-2.443-.872zm271.359-.984a1.907 1.907 0 0 1-.287-3.014 1.89 1.89 0 0 1 2.775-.139 2.056 2.056 0 0 1 .309 2.769 2.547 2.547 0 0 1-1.682.792 1.8 1.8 0 0 1-1.136-.411zm-351.262-.941a3.471 3.471 0 0 1-.967-5.158 3.459 3.459 0 0 1 4.868-1.047c1.967 1.164 2.162 3.1 1.284 5.189a4.278 4.278 0 0 1-3.15 1.686 3.639 3.639 0 0 1-2.056-.676zm270.867-.094c-1.661-1.282-2.162-2.905-.947-4.7a3.067 3.067 0 0 1 4.706-.867 3.034 3.034 0 0 1 .948 4.416 3.124 3.124 0 0 1-2.7 1.717 4.365 4.365 0 0 1-2.025-.572zm-80.558-1.036c-2.084-1.605-2.632-3.544-1.074-5.759a3.609 3.609 0 0 1 5.44-1.055c2.222 1.471 2.636 3.5 1.108 5.712a3.663 3.663 0 0 1-3.056 1.817 5.055 5.055 0 0 1-2.439-.721zm-269.233-1.057a2.258 2.258 0 0 1-.643-3.352 2.248 2.248 0 0 1 3.614-.561 2.207 2.207 0 0 1 .388 3.373 2.259 2.259 0 0 1-1.822 1.047 2.942 2.942 0 0 1-1.558-.512zm189.8-.6c-1.97-1.812-2.524-4.023-.884-6.2a4.024 4.024 0 0 1 5.891-.915 4.067 4.067 0 0 1 .96 6.162 3.948 3.948 0 0 1-3.245 1.729 5.779 5.779 0 0 1-2.749-.785zm-79.816-1.955a3.589 3.589 0 0 1-1.069-5.417c1.369-2.06 3.321-2.238 5.457-1.138 1.841 1.569 2.419 3.442 1.029 5.488a3.727 3.727 0 0 1-3.073 1.865 4.229 4.229 0 0 1-2.368-.807zm270.884-.853a2.814 2.814 0 0 1-.4-4.167c1.125-1.375 2.64-1.452 4.188-.583 1.25 1.256 1.684 2.74.62 4.186a3.016 3.016 0 0 1-2.406 1.375 3.122 3.122 0 0 1-2.026-.82zm-80.14-1.432a3.591 3.591 0 0 1-.752-5.468 3.591 3.591 0 0 1 5.469-.756c1.975 1.48 2.046 3.442.8 5.538a4.436 4.436 0 0 1-3.135 1.589 3.908 3.908 0 0 1-2.406-.911zm-269.969-.558a2.882 2.882 0 0 1-.991-4.321 2.882 2.882 0 0 1 4.32-.993c1.688 1.046 1.88 2.607 1.059 4.33a3.439 3.439 0 0 1-2.645 1.547 3.26 3.26 0 0 1-1.767-.571zm189.429-.72a4.139 4.139 0 0 1-.678-6.24 4.13 4.13 0 0 1 5.956-.783c2.213 1.613 2.26 3.91 1.127 6.146a5.5 5.5 0 0 1-3.778 1.885 4.164 4.164 0 0 1-2.651-1.016zm-79.417-2.331c-2.156-1.536-2.51-3.616-.98-5.774s3.611-2.5 5.773-.981 2.386 3.562 1.023 5.8a4.337 4.337 0 0 1-3.3 1.87 4.348 4.348 0 0 1-2.54-.923zm271.238-.61a2.249 2.249 0 0 1-.481-3.626 2.208 2.208 0 0 1 3.383-.311 2.267 2.267 0 0 1 .477 3.356 2.531 2.531 0 0 1-1.93 1.1 2.536 2.536 0 0 1-1.473-.527zm-80.632-1.313a3.512 3.512 0 0 1-.768-5.166c1.312-1.831 3.227-1.868 5.109-1.046 1.719 1.584 2.3 3.433 1.063 5.277a3.654 3.654 0 0 1-3.023 1.8 4 4 0 0 1-2.405-.868zm-270.7-.222a3.469 3.469 0 0 1-.486-5.229 3.457 3.457 0 0 1 4.942-.59c1.814 1.362 1.9 3.279.849 5.223a4.667 4.667 0 0 1-3.1 1.466 3.4 3.4 0 0 1-2.227-.878zm190.264-.761c-2.008-1.863-2.546-4.083-.891-6.248a4.026 4.026 0 0 1 5.9-.876 4.073 4.073 0 0 1 .921 6.169 3.951 3.951 0 0 1-3.237 1.708 5.774 5.774 0 0 1-2.715-.761zm-79.866-2.239c-2.168-1.586-2.322-3.873-1.1-6.247 1.811-1.958 3.933-2.5 6.265-1.134a4.591 4.591 0 0 1 1.08 6.506 4.791 4.791 0 0 1-3.562 1.831 4.522 4.522 0 0 1-2.706-.964zm-79.712-2a3.589 3.589 0 0 1-1.06-5.417 3.6 3.6 0 0 1 5.42-1.067c2.1 1.375 2.131 3.346 1.292 5.271a4.682 4.682 0 0 1-3.44 1.976 3.921 3.921 0 0 1-2.235-.768zm351.772.058a2.058 2.058 0 0 1-.415-2.772 2.02 2.02 0 0 1 2.757-.486 1.9 1.9 0 0 1 .421 3 1.975 1.975 0 0 1-1.5.743 1.974 1.974 0 0 1-1.286-.49zm-80.87-.357a3.178 3.178 0 0 1-.9-4.778 3.176 3.176 0 0 1 4.777-.9c1.767 1.2 1.975 2.936.93 4.818a3.709 3.709 0 0 1-2.806 1.549 3.54 3.54 0 0 1-2.024-.694zm-80.06-1.629c-2.19-1.452-2.669-3.515-1.206-5.733 1.449-2.191 3.512-2.667 5.733-1.207 2.206 1.452 2.548 3.464 1.239 5.771a4.321 4.321 0 0 1-3.36 1.991 4.36 4.36 0 0 1-2.429-.827zm-269.559-.712c-1.435-1.079-1.515-2.592-.716-4.168 1.208-1.3 2.681-1.76 4.157-.753a2.824 2.824 0 0 1 .7 4.387 2.879 2.879 0 0 1-2.274 1.213 3.12 3.12 0 0 1-1.89-.684zm189.58-.1c-2.068-2.14-2.658-4.47-.809-6.712a4.239 4.239 0 0 1 6.249-.733 4.29 4.29 0 0 1 .773 6.521 4.2 4.2 0 0 1-3.367 1.7 6.259 6.259 0 0 1-2.869-.786zm-79.645-2.543c-1.95-1.918-2.45-4.139-.723-6.268a4.02 4.02 0 0 1 5.917-.719 4.064 4.064 0 0 1 .75 6.188 3.99 3.99 0 0 1-3.179 1.625 5.614 5.614 0 0 1-2.788-.836zm270.8-.465a2.841 2.841 0 0 1-.423-4.193 2.884 2.884 0 0 1 4.464-.456c1.363 1.156 1.411 2.69.448 4.271a3.688 3.688 0 0 1-2.5 1.2 3.015 3.015 0 0 1-2.008-.832zm-79.734-1.062c-2.127-1.7-2.705-3.562-1.326-5.648 1.475-2.227 3.543-2.622 5.71-1.05 2.01 1.458 2.285 3.432.876 5.469a3.651 3.651 0 0 1-3.075 1.791 5.067 5.067 0 0 1-2.204-.572zm-270.706-.626c-1.559-1.348-2.078-3.094-1-4.84a3.363 3.363 0 0 1 5.067-1.111 3.36 3.36 0 0 1 .848 5.113 3.254 3.254 0 0 1-2.7 1.44 4.866 4.866 0 0 1-2.234-.612zm189.707-.9a4.294 4.294 0 0 1-.724-6.526 4.277 4.277 0 0 1 6.243-.823c2.358 1.717 2.373 4.083 1.2 6.431a5.781 5.781 0 0 1-3.952 1.99 4.393 4.393 0 0 1-2.786-1.078zm-79.793-2.363a4.241 4.241 0 0 1-.733-6.25 4.288 4.288 0 0 1 6.52-.771c2.095 1.687 2.07 4 .92 6.211a5.8 5.8 0 0 1-3.908 1.919 4.357 4.357 0 0 1-2.818-1.115zm272.138-1.418a2.253 2.253 0 0 1-.4-3.639 2.223 2.223 0 0 1 3.395-.233 2.262 2.262 0 0 1 .513 3.232 2.765 2.765 0 0 1-2.05 1.182 2.479 2.479 0 0 1-1.478-.548zm-351.8-.6a3.591 3.591 0 0 1-.738-5.471 3.6 3.6 0 0 1 5.473-.744c2 1.493 1.93 3.467.934 5.392a4.753 4.753 0 0 1-3.314 1.722 3.836 3.836 0 0 1-2.37-.907zm270.894.289c-1.822-1.773-2.364-3.707-.858-5.639a3.532 3.532 0 0 1 5.182-.756 3.582 3.582 0 0 1 .8 5.452 3.457 3.457 0 0 1-2.865 1.486 5.606 5.606 0 0 1-2.273-.551zm-80.37-1.947a4.237 4.237 0 0 1-.947-6.217 4.279 4.279 0 0 1 6.486-.992c2.136 1.6 2.267 3.913 1.01 6.307a5.4 5.4 0 0 1-3.8 1.924 4.491 4.491 0 0 1-2.764-1.028zm-80.011-1.212c-2.214-2.056-2.881-4.325-1.194-6.684a4.3 4.3 0 0 1 6.466-1.112 4.312 4.312 0 0 1 1.117 6.466 4.238 4.238 0 0 1-3.605 2.025 6.689 6.689 0 0 1-2.798-.703zm-79.352-2.562a4.047 4.047 0 0 1-1.38-6.076 4.045 4.045 0 0 1 6.127-1.118c2.061 1.457 2.27 3.642 1.092 5.961a4.774 4.774 0 0 1-3.582 1.917 4.32 4.32 0 0 1-2.272-.693zm270.49-.12a3.179 3.179 0 0 1-.9-4.778 3.175 3.175 0 0 1 4.777-.9c1.766 1.2 1.976 2.934.931 4.817a3.709 3.709 0 0 1-2.806 1.549 3.54 3.54 0 0 1-2.017-.7zm81.086.183a1.637 1.637 0 0 1-.321-2.456 1.544 1.544 0 0 1 2.329-.357 1.6 1.6 0 0 1 .265 2.61 1.5 1.5 0 0 1-1.16.593 2.033 2.033 0 0 1-1.128-.399zm-161.436-1.711a4.144 4.144 0 0 1-.964-6.2 4.129 4.129 0 0 1 5.914-1.053c2.285 1.5 2.458 3.8 1.337 6.181a5.239 5.239 0 0 1-3.761 1.965 4.292 4.292 0 0 1-2.541-.902zm-269.489-.381c-1.627-1.413-2.02-3.111-.772-4.848a3.176 3.176 0 0 1 4.8-.783 3.177 3.177 0 0 1 .786 4.8 3.187 3.187 0 0 1-2.635 1.5 4.373 4.373 0 0 1-2.193-.678zm189.589-.563c-2.019-1.924-2.557-4.112-.911-6.541a4.572 4.572 0 0 1 6.8-.9c2.169 1.911 2.486 4.256.711 6.541a4.328 4.328 0 0 1-3.482 1.9 6.178 6.178 0 0 1-3.133-1.009zm-79.528-2.17c-2.118-2.133-2.723-4.454-.91-6.717a4.3 4.3 0 0 1 6.529-.717 4.278 4.278 0 0 1 .815 6.243 4.286 4.286 0 0 1-3.567 1.961 6.481 6.481 0 0 1-2.881-.779zm271.729-1.175a2.878 2.878 0 0 1-.858-4.4c1.033-1.5 2.555-1.609 4.187-.853 1.487 1.26 1.962 2.8.8 4.448a2.909 2.909 0 0 1-2.383 1.371 3.219 3.219 0 0 1-1.761-.576zm-80.82-.905c-2.194-1.55-2.52-3.607-.924-5.741 1.621-2.169 3.722-2.3 5.783-.658 1.956 1.56 1.988 3.505.621 5.591a4.148 4.148 0 0 1-3.091 1.666 4.156 4.156 0 0 1-2.403-.868zm-270.711-.217c-1.72-1.672-2.233-3.587-.746-5.548a3.571 3.571 0 0 1 5.179-.881 3.6 3.6 0 0 1 1.062 5.422 3.513 3.513 0 0 1-2.984 1.722 5.44 5.44 0 0 1-2.525-.725zm190.091-1.8a4.457 4.457 0 0 1-.723-6.213 4.568 4.568 0 0 1 6.776-1.047 4.444 4.444 0 0 1 .873 6.532 4.3 4.3 0 0 1-3.6 1.872 5.742 5.742 0 0 1-3.341-1.158zm-79.613-1.184a4.627 4.627 0 0 1-1.3-6.735 4.688 4.688 0 0 1 6.8-1.021c2.077 1.589 2.494 4.379.67 6.957a4.451 4.451 0 0 1-3.378 1.684 5.317 5.317 0 0 1-2.806-.899zm271.684-1.964a2.258 2.258 0 0 1-.394-3.378 2.253 2.253 0 0 1 3.646-.318 2.219 2.219 0 0 1 .158 3.4 2.242 2.242 0 0 1-1.735.919 2.953 2.953 0 0 1-1.689-.638zm-80.771-.218c-1.816-1.578-2.426-3.481-1.027-5.5a3.6 3.6 0 0 1 5.444-.94 3.573 3.573 0 0 1 1.024 5.153 3.526 3.526 0 0 1-3.1 1.87 5.662 5.662 0 0 1-2.355-.598zm-270.724-.813c-1.966-1.811-2.175-3.856-.539-5.887 1.675-2.081 3.815-2.187 5.842-.559 2.082 1.673 2.182 3.813.558 5.843a3.812 3.812 0 0 1-3.007 1.644 5.127 5.127 0 0 1-2.868-1.056zm190.456-1.033a4.263 4.263 0 0 1-1.207-6.175c1.552-2.454 3.915-2.682 6.481-1.474 2.128 1.875 2.843 4.149 1.189 6.526a4.4 4.4 0 0 1-3.616 2.12 4.969 4.969 0 0 1-2.861-1.012zm-80.414-1.481a4.494 4.494 0 0 1-1.114-6.538 4.664 4.664 0 0 1 6.794-1.308 4.71 4.71 0 0 1 1.165 6.831 4.8 4.8 0 0 1-3.889 2.079 4.741 4.741 0 0 1-2.971-1.079zm-79.526-2.4c-2.346-1.73-2.354-4.1-1.159-6.436 2.142-2.11 4.468-2.707 6.722-.88a4.3 4.3 0 0 1 .684 6.531 4.454 4.454 0 0 1-3.44 1.794 4.729 4.729 0 0 1-2.822-1.026zm352.2-.059a1.444 1.444 0 0 1-.345-2.283 1.416 1.416 0 0 1 2-.429 1.51 1.51 0 0 1 .6 2.28 1.6 1.6 0 0 1-1.277.781 1.716 1.716 0 0 1-.991-.37zm-80.781-.657c-1.7-1.473-2.09-3.17-.843-4.9a3.177 3.177 0 0 1 4.8-.786 3.182 3.182 0 0 1 .786 4.8 3.189 3.189 0 0 1-2.648 1.5 4.351 4.351 0 0 1-2.108-.631zm-80.677-.708a4.589 4.589 0 0 1-1.2-6.481c1.724-2.057 4.026-2.534 6.222-1s2.392 3.826 1.216 6.238a5.026 5.026 0 0 1-3.751 1.946 5.113 5.113 0 0 1-2.503-.72zm-269.817-.4a3.554 3.554 0 0 1-.718-5.458c1.377-1.731 3.3-1.819 5.251-.737 1.583 1.532 2.142 3.365.88 5.219a3.721 3.721 0 0 1-3.058 1.827 3.987 3.987 0 0 1-2.368-.869zm190.288-1.308a4.739 4.739 0 0 1-.975-6.863 4.693 4.693 0 0 1 6.877-.827c2.233 1.872 2.546 4.147.926 6.571a4.607 4.607 0 0 1-3.861 2.127 5.023 5.023 0 0 1-2.98-1.025zm-80.029-1.581a4.642 4.642 0 0 1-1.121-6.83 4.658 4.658 0 0 1 6.878-.827c2.254 1.914 2.361 4.178.8 6.682a5.094 5.094 0 0 1-3.728 1.936 5.142 5.142 0 0 1-2.841-.978zm271.865-1.141c-1.506-1.243-1.983-2.72-1.068-4.226a2.824 2.824 0 0 1 4.349-.9 2.812 2.812 0 0 1 .725 4.116 2.721 2.721 0 0 1-2.388 1.325 4.857 4.857 0 0 1-1.63-.333zm-81.108-1.055c-2.155-1.6-2.356-3.685-.763-5.785a3.662 3.662 0 0 1 5.493-.854c2.208 1.519 2.441 3.52 1.077 5.769a4.284 4.284 0 0 1-3.249 1.842 4.308 4.308 0 0 1-2.573-.99zm-270.394-.875c-1.934-1.548-2.124-3.538-.682-5.522 1.585-2.177 3.6-2.309 5.81-.889 2 1.738 2.315 3.747.683 5.828a3.869 3.869 0 0 1-3.034 1.711 4.509 4.509 0 0 1-2.789-1.146zm190.72-.44c-2.718-1.953-3.195-4.97-1.387-7.162 1.865-2.263 4.146-2.573 6.57-.926a4.6 4.6 0 0 1 .973 6.843 4.71 4.71 0 0 1-3.664 1.985 4.9 4.9 0 0 1-2.505-.758zm-80.617-1.693c-2.37-1.9-2.972-4.184-1.339-6.828a4.721 4.721 0 0 1 7.092-1.287c2.436 1.9 2.861 4.317 1.09 6.837a4.548 4.548 0 0 1-3.772 2.22 6.234 6.234 0 0 1-3.084-.96zm272.247-1.94c-1.342-1.126-1.586-2.3-.635-3.534a2.172 2.172 0 0 1 3.4-.362 2.137 2.137 0 0 1 .455 3.107 2.216 2.216 0 0 1-1.882 1.148 2.983 2.983 0 0 1-1.352-.377zm-351.782-.727a4.238 4.238 0 0 1-1.208-6.173 4.277 4.277 0 0 1 6.441-1.26c2.229 1.514 2.4 3.817 1.265 6.275a5.255 5.255 0 0 1-3.857 2.064 4.628 4.628 0 0 1-2.655-.923zm270.955-.5c-1.567-1.541-2.115-3.376-.839-5.224a3.553 3.553 0 0 1 5.422-.939 3.557 3.557 0 0 1 .68 5.466 3.511 3.511 0 0 1-2.8 1.428 5.06 5.06 0 0 1-2.477-.748zm-80.511-.844a4.568 4.568 0 0 1-1.069-6.774 4.443 4.443 0 0 1 6.529-.891c2.14 1.47 2.548 4.394.749 6.924a4.539 4.539 0 0 1-3.386 1.665 5.233 5.233 0 0 1-2.837-.941zm-80.085-1.952a5.059 5.059 0 0 1-1.358-6.959 5.253 5.253 0 0 1 7.219-1.566 5.365 5.365 0 0 1 1.415 7.271 5.378 5.378 0 0 1-4.387 2.219 4.591 4.591 0 0 1-2.903-.982zm-79.848-1.84a4.582 4.582 0 0 1-1.235-6.8c1.784-2.367 4.028-2.6 6.091-1.495 2.812 1.877 3.392 4.848 1.668 7.107a4.636 4.636 0 0 1-3.683 2.113 5.368 5.368 0 0 1-2.841-.925zm271.369-1.05a3.177 3.177 0 0 1-.9-4.775 3.174 3.174 0 0 1 4.774-.9c1.765 1.2 1.974 2.936.935 4.8a3.717 3.717 0 0 1-2.814 1.561 3.532 3.532 0 0 1-1.99-.686zm-80.14-.26a4.6 4.6 0 0 1-1.041-6.512 4.473 4.473 0 0 1 6.273-.863c1.918 1.255 2.342 4.4.894 6.437a4.845 4.845 0 0 1-3.534 1.72 5.059 5.059 0 0 1-2.586-.782zm-270.122-1.3c-2.16-1.631-2.27-3.729-.626-5.787 1.576-1.972 3.523-1.913 5.448-.723 1.949 1.708 2.37 3.584.925 5.616a3.885 3.885 0 0 1-3.129 1.905 4.4 4.4 0 0 1-2.613-1.013zm189.849-.517a5.375 5.375 0 0 1-1.049-7.335c1.7-2.2 5.3-2.722 7.334-.89a5.061 5.061 0 0 1 1 7.021 4.976 4.976 0 0 1-4.241 2.165 5.128 5.128 0 0 1-3.039-.963zm-80.249-1.665c-2.205-1.691-2.74-5.29-.913-7.334a5.069 5.069 0 0 1 7.019-1.021 5.244 5.244 0 0 1 1.224 7.283 5.318 5.318 0 0 1-4.278 2.063 5 5 0 0 1-3.047-.993zm271.952-1.77a2.753 2.753 0 0 1-.581-3.879c1.034-1.506 2.561-1.6 4.162-.821 1.27 1.269 1.707 2.771.585 4.208a2.89 2.89 0 0 1-2.273 1.221 3.018 3.018 0 0 1-1.888-.727zm-351.4-1.108c-1.94-1.827-2.355-4.151-.693-6.27 1.65-2.1 3.941-2.221 6.26-.933 1.916 1.885 2.416 4.021.968 6.311a4.485 4.485 0 0 1-3.783 1.887 3.99 3.99 0 0 1-2.747-.997zm270.966-.226c-2.118-1.665-2.215-3.771-.577-5.812 1.548-1.933 3.538-2.122 5.521-.678 2.18 1.586 2.306 3.6.888 5.809a4.28 4.28 0 0 1-3.187 1.731 4.311 4.311 0 0 1-2.64-1.051zm-80.584-.921c-2.483-1.881-2.783-4.362-.93-6.831 1.873-2.49 4.358-2.777 6.829-.93 2.511 1.875 2.616 4.288.978 6.882a5.2 5.2 0 0 1-3.829 2.042 5.059 5.059 0 0 1-3.043-1.164zm-79.618-1.632a5.543 5.543 0 0 1-1.506-7.578 5.54 5.54 0 0 1 7.329-1.326 5.549 5.549 0 0 1 1.461 7.307 5.486 5.486 0 0 1-4.587 2.324 5.145 5.145 0 0 1-2.691-.728zm-79.937-2.141a4.628 4.628 0 0 1-1.3-6.735 4.635 4.635 0 0 1 6.785-1.008c2.271 1.835 2.437 4.073 1.022 6.553a5.1 5.1 0 0 1-3.805 2.052 5.141 5.141 0 0 1-2.697-.863zm351.987-.438c-1.016-1.042-1.255-2.246-.246-3.368a2.109 2.109 0 0 1 3.087-.268 2.154 2.154 0 0 1 .3 3.355 2.124 2.124 0 0 1-1.618.782 2.847 2.847 0 0 1-1.518-.502zm-80.977-.259c-1.7-1.616-2.257-3.543-.778-5.495a3.529 3.529 0 0 1 5.17-.817 3.573 3.573 0 0 1 .864 5.439 3.44 3.44 0 0 1-2.853 1.524 5.372 5.372 0 0 1-2.399-.652zm-80.83-1.081c-2.222-1.854-2.534-4.135-.891-6.528 1.469-2.14 4.393-2.549 6.924-.75a4.456 4.456 0 0 1 .74 6.209 4.593 4.593 0 0 1-3.872 2.123 4.5 4.5 0 0 1-2.896-1.055zm-80.054-1.671a5.594 5.594 0 0 1-.984-7.665 5.621 5.621 0 0 1 7.392-.944 5.588 5.588 0 0 1 .983 7.663 5.577 5.577 0 0 1-4.292 1.926 5.157 5.157 0 0 1-3.094-.981zm-79.937-1.661a5.359 5.359 0 0 1-1.251-7.3 5.247 5.247 0 0 1 7.3-1.092 5.06 5.06 0 0 1 1.2 6.99 4.972 4.972 0 0 1-4.322 2.278 5.14 5.14 0 0 1-2.922-.877zm271.649-1.471a3.071 3.071 0 0 1-.663-4.741 3.029 3.029 0 0 1 4.45-.749c1.795 1.194 2.026 2.859.965 4.723a3.59 3.59 0 0 1-2.711 1.522 3.455 3.455 0 0 1-2.037-.756zm-79.771-.875c-2.171-1.587-2.322-3.873-1.1-6.249 1.811-1.958 3.934-2.5 6.266-1.132a4.586 4.586 0 0 1 1.078 6.5 4.794 4.794 0 0 1-3.562 1.833 4.518 4.518 0 0 1-2.678-.953zm-270.214-.016a4.043 4.043 0 0 1-1.4-6.066 4.041 4.041 0 0 1 6.122-1.142c2.07 1.448 2.284 3.632 1.113 5.961a4.759 4.759 0 0 1-3.581 1.924 4.33 4.33 0 0 1-2.25-.675zm189.581-.97a5.478 5.478 0 0 1-1.154-7.35 5.477 5.477 0 0 1 7.349-1.155 5.482 5.482 0 0 1 1.157 7.351 5.426 5.426 0 0 1-4.359 2.088 5.047 5.047 0 0 1-2.989-.934zm-79.854-2.216a5.589 5.589 0 0 1-.962-7.664 5.615 5.615 0 0 1 7.393-.928 5.589 5.589 0 0 1 .964 7.667 5.58 5.58 0 0 1-4.282 1.915 5.148 5.148 0 0 1-3.108-.99zm-79.467-1.917a4.568 4.568 0 0 1-1.328-6.727c1.768-2.3 4.032-2.7 6.484-1.148 2.2 1.389 2.722 4.3 1.045 6.855a4.5 4.5 0 0 1-3.5 1.832 5.355 5.355 0 0 1-2.7-.812zm351.866.11a2.619 2.619 0 0 1-1-3.7c.861-1.613 2.358-1.8 4.007-1.109a2.824 2.824 0 0 1 .947 3.74 2.632 2.632 0 0 1-2.34 1.542 3.251 3.251 0 0 1-1.61-.478zm-81.267-.9c-2.095-1.717-2.115-3.814-.412-5.814 1.642-1.93 3.59-1.775 5.545-.473 1.965 1.881 2.141 3.9.408 5.9a3.786 3.786 0 0 1-2.859 1.489 4.284 4.284 0 0 1-2.68-1.102zm-80.281-.551c-2.431-1.88-3.156-4.183-1.44-6.8 1.692-2.581 4.125-3.159 6.736-1.461 2.583 1.684 3.154 4.117 1.462 6.736a4.5 4.5 0 0 1-3.833 2.373 6.228 6.228 0 0 1-2.921-.848zm-80.445-2.139a5.622 5.622 0 0 1-.853-7.731 5.614 5.614 0 0 1 7.743-.714 5.63 5.63 0 0 1 .823 7.448 5.584 5.584 0 0 1-4.43 2.1 5.257 5.257 0 0 1-3.278-1.103zm-79.708-1.883a4.723 4.723 0 0 1-.955-7.145c2.011-2.372 4.419-2.566 6.9-.781 2.288 1.648 2.629 4.6.734 7.147a4.749 4.749 0 0 1-3.6 1.853 5.517 5.517 0 0 1-3.074-1.074zm271.135-1.071a3.508 3.508 0 0 1-.5-5.2c1.4-1.7 3.312-1.793 5.236-.692 1.531 1.592 2.066 3.459.707 5.24a3.762 3.762 0 0 1-2.969 1.652 3.841 3.841 0 0 1-2.473-1zm81.284.278a1.9 1.9 0 0 1-.26-2.765 2.127 2.127 0 0 1 2.678-.5c.943.9 1.237 1.9.584 2.847a2.005 2.005 0 0 1-1.64.973 2.11 2.11 0 0 1-1.358-.554zm-161.134-1.417a4.563 4.563 0 0 1-1.261-6.739c1.789-2.28 4.1-2.713 6.484-1.067 2.414 1.665 2.588 3.972 1.3 6.474a5.132 5.132 0 0 1-3.881 2.152 5.144 5.144 0 0 1-2.638-.819zm-80.909-1.221a5.623 5.623 0 0 1-1.268-7.383 5.6 5.6 0 0 1 7.633-1.452 5.6 5.6 0 0 1 1.315 7.656 5.558 5.558 0 0 1-4.5 2.206 5.277 5.277 0 0 1-3.176-1.028zm-79.8-2.347c-2.251-1.783-2.769-5.583-.857-7.654a5.293 5.293 0 0 1 7.342-.975 5.507 5.507 0 0 1 1.174 7.607 5.6 5.6 0 0 1-4.444 2.077 5.162 5.162 0 0 1-3.214-1.055zm-79.145-1.9a4.273 4.273 0 0 1-.785-6.246c1.726-2.323 4.085-2.431 6.556-1.04 1.992 2.022 2.587 4.346.76 6.6a4.545 4.545 0 0 1-3.516 1.882 4.762 4.762 0 0 1-3.01-1.195zm270.907.032a4.144 4.144 0 0 1-.724-6.238 4.126 4.126 0 0 1 5.952-.819c2.2 1.595 2.349 3.881 1.092 6.217a5.317 5.317 0 0 1-3.693 1.834 4.207 4.207 0 0 1-2.629-.992zm80.3.167a2.88 2.88 0 0 1-.544-4.4c1.214-1.567 2.788-1.613 4.46-.574 1.36 1.339 1.712 2.875.484 4.432a3.054 3.054 0 0 1-2.385 1.322 3.293 3.293 0 0 1-2.011-.778zm-160.858-.907a5.547 5.547 0 0 1-1.12-7.645 5.572 5.572 0 0 1 7.4-.938 5.559 5.559 0 0 1 1.073 7.374 5.484 5.484 0 0 1-4.4 2.1 5.116 5.116 0 0 1-2.949-.889zm-79.74-2.029a5.525 5.525 0 0 1-1.342-7.88 5.53 5.53 0 0 1 7.634-1.16 5.529 5.529 0 0 1 1.293 7.61 5.524 5.524 0 0 1-4.54 2.354 5.448 5.448 0 0 1-3.041-.922zm-79.969-2.24c-2.517-1.823-2.908-4.284-1.1-6.8s4.277-2.9 6.8-1.1c2.547 1.816 2.739 4.218 1.158 6.843a5.2 5.2 0 0 1-3.891 2.151 5.066 5.066 0 0 1-2.964-1.092zm352.221-.285a2.254 2.254 0 0 1-.294-3.648 2.218 2.218 0 0 1 3.4-.141 2.287 2.287 0 0 1 .28 3.41 2.517 2.517 0 0 1-1.851.973 2.53 2.53 0 0 1-1.531-.592zm-80.92-.279c-2.205-1.532-2.515-3.614-.9-5.735 1.5-1.975 3.5-2.19 5.489-.728 2.016 1.483 2.153 3.406.906 5.51a4.23 4.23 0 0 1-3.177 1.773 4.053 4.053 0 0 1-2.314-.819zm-80.471-1.665c-2.49-1.873-2.771-4.351-.935-6.829 1.882-2.542 4.3-2.557 6.749-1.1 2.428 2.155 2.89 4.519 1.015 6.994a4.657 4.657 0 0 1-3.695 2.125 5.263 5.263 0 0 1-3.13-1.188zm-80.414-.957a5.428 5.428 0 0 1-1.471-7.557 5.441 5.441 0 0 1 7.828-1.518 5.427 5.427 0 0 1 1.469 7.555 5.48 5.48 0 0 1-4.6 2.564 5.612 5.612 0 0 1-3.222-1.042zm-79.772-2.5a5.6 5.6 0 0 1-1.193-7.352 5.571 5.571 0 0 1 7.623-1.24 5.6 5.6 0 0 1 1.192 7.353 5.5 5.5 0 0 1-4.515 2.232 5.131 5.131 0 0 1-3.103-.992zm352.605-.71a1.469 1.469 0 0 1-.161-2.314 1.418 1.418 0 0 1 2.028-.249 1.481 1.481 0 0 1 .459 2.254 1.713 1.713 0 0 1-1.287.732 1.665 1.665 0 0 1-1.035-.422zm-80.728-.434c-1.577-1.33-2.14-3.053-1.1-4.833a3.38 3.38 0 0 1 5.045-1.216 3.338 3.338 0 0 1 1.153 4.781 3.256 3.256 0 0 1-2.92 1.8 5.3 5.3 0 0 1-2.174-.531zm-80.735-.79a4.306 4.306 0 0 1-1.323-6.426 4.307 4.307 0 0 1 6.426-1.327c2.434 1.578 2.631 3.938 1.417 6.481a5.287 5.287 0 0 1-3.913 2.138 4.7 4.7 0 0 1-2.603-.864zm-80.712-.952a5.6 5.6 0 0 1-1.464-7.619 5.6 5.6 0 0 1 7.619-1.463 5.6 5.6 0 0 1 1.465 7.619 5.557 5.557 0 0 1-4.6 2.369 5.37 5.37 0 0 1-3.016-.905zm-79.7-2.208a5.528 5.528 0 0 1-1.378-7.875 5.535 5.535 0 0 1 7.628-1.2 5.527 5.527 0 0 1 1.331 7.6 5.528 5.528 0 0 1-4.556 2.376 5.449 5.449 0 0 1-3.022-.898zm-79.445-1.951c-2.026-1.889-2.566-4.064-.955-6.507a4.63 4.63 0 0 1 6.77-1.1 4.643 4.643 0 0 1 .81 6.815 4.557 4.557 0 0 1-3.5 1.819 6.032 6.032 0 0 1-3.122-1.025zm271.045-.143c-1.977-1.86-2.494-4.087-.822-6.236a4.027 4.027 0 0 1 5.907-.827 4.072 4.072 0 0 1 .868 6.177 3.962 3.962 0 0 1-3.216 1.683 5.682 5.682 0 0 1-2.735-.8zm80.3 0a2.8 2.8 0 0 1-.642-4.126c1.033-1.47 2.549-1.578 4.152-.825 1.337 1.167 1.811 2.641.857 4.134a2.919 2.919 0 0 1-2.448 1.512 3.261 3.261 0 0 1-1.92-.698zm-160.453-1.417a5.536 5.536 0 0 1-1.243-7.624 5.565 5.565 0 0 1 7.378-1.062 5.543 5.543 0 0 1 1.2 7.352 5.471 5.471 0 0 1-4.45 2.177 5.139 5.139 0 0 1-2.886-.845zm-80.476-1.457a5.435 5.435 0 0 1-1.278-7.836 5.437 5.437 0 0 1 7.837-1.279 5.437 5.437 0 0 1 1.278 7.838 5.487 5.487 0 0 1-4.476 2.406 5.758 5.758 0 0 1-3.362-1.131zm-79.392-2.45a5.479 5.479 0 0 1-1.427-7.3 5.48 5.48 0 0 1 7.3-1.429 5.481 5.481 0 0 1 1.427 7.3 5.4 5.4 0 0 1-4.475 2.25 5.075 5.075 0 0 1-2.826-.823zm351.826-.228c-.964-1.062-1.189-2.261-.138-3.364a2.106 2.106 0 0 1 3.093-.183 2.151 2.151 0 0 1 .2 3.359 2.139 2.139 0 0 1-1.582.739 2.825 2.825 0 0 1-1.574-.553zm-80.49-.914a3.6 3.6 0 0 1-.805-5.466 3.574 3.574 0 0 1 5.179-.894c2.051 1.356 2.212 3.33 1.144 5.478a4.522 4.522 0 0 1-3.243 1.709 3.821 3.821 0 0 1-2.276-.829zm-80.644-.747c-2.51-1.84-2.979-4.236-1.2-6.785 1.667-2.387 3.982-2.8 6.488-1.309a4.692 4.692 0 0 1 1.5 6.758 4.82 4.82 0 0 1-4.008 2.277 4.688 4.688 0 0 1-2.782-.943zm-80.225-1.691a5.433 5.433 0 0 1-1.512-7.533 5.45 5.45 0 0 1 7.78-1.7 5.437 5.437 0 0 1 1.56 7.8 5.485 5.485 0 0 1-4.548 2.5 5.685 5.685 0 0 1-3.281-1.066zm-80.137-1.694a5.6 5.6 0 0 1-1.314-7.647 5.6 5.6 0 0 1 7.646-1.312 5.6 5.6 0 0 1 1.315 7.645 5.562 5.562 0 0 1-4.538 2.281 5.366 5.366 0 0 1-3.11-.972zm272.133-1.5a3.076 3.076 0 0 1-1.131-4.656c1.152-1.816 2.826-2.077 4.719-1.03 1.652 1.336 2.065 2.961.828 4.739a3.132 3.132 0 0 1-2.573 1.522 3.536 3.536 0 0 1-1.844-.574zm-81.349-.9a4.271 4.271 0 0 1-.911-6.229c1.68-2.365 4.035-2.5 6.534-1.172 2.037 1.983 2.666 4.292.89 6.584a4.5 4.5 0 0 1-3.548 1.954 4.813 4.813 0 0 1-2.967-1.136zm-79.868-1.255a5.616 5.616 0 0 1-1.608-7.594 5.616 5.616 0 0 1 7.594-1.608 5.612 5.612 0 0 1 1.608 7.593 5.573 5.573 0 0 1-4.672 2.454 5.353 5.353 0 0 1-2.923-.844zm-79.8-1.189a5.433 5.433 0 0 1-1.331-7.826 5.432 5.432 0 0 1 7.826-1.332 5.433 5.433 0 0 1 1.332 7.828 5.488 5.488 0 0 1-4.5 2.438 5.756 5.756 0 0 1-3.325-1.107zm-79.123-2.74c-2.584-1.681-3.154-4.119-1.462-6.736s4.065-2.981 6.76-1.525c2.431 1.877 3.156 4.182 1.436 6.8a4.639 4.639 0 0 1-3.852 2.424 5.314 5.314 0 0 1-2.88-.962zm350.6-.018a2.628 2.628 0 0 1-.491-3.8 2.674 2.674 0 0 1 4.072-.533 2.858 2.858 0 0 1 .584 3.789 3.479 3.479 0 0 1-2.424 1.228 2.743 2.743 0 0 1-1.736-.687zm-79.926-.845c-1.932-1.544-2.13-3.534-.685-5.519 1.583-2.183 3.6-2.315 5.809-.9 2.006 1.735 2.319 3.743.688 5.827a3.871 3.871 0 0 1-3.037 1.714 4.5 4.5 0 0 1-2.769-1.121zm-80.66-.495a5.482 5.482 0 0 1-1.157-7.351 5.482 5.482 0 0 1 7.352-1.154 5.478 5.478 0 0 1 1.154 7.35 5.425 5.425 0 0 1-4.358 2.088 5.042 5.042 0 0 1-2.985-.932zm-80.163-2.015a5.522 5.522 0 0 1-1.025-7.941 5.508 5.508 0 0 1 7.916-1.164 5.509 5.509 0 0 1 1.3 7.894 5.6 5.6 0 0 1-4.592 2.5 5.877 5.877 0 0 1-3.593-1.287zm-79.82-1.723c-2.327-1.681-2.986-5.435-1.149-7.61a5.289 5.289 0 0 1 7.3-1.253c2.461 1.446 3.092 5.2 1.46 7.556a5.555 5.555 0 0 1-4.555 2.251 5.192 5.192 0 0 1-3.05-.942zm271.623-1.157c-1.6-1.521-2.177-3.369-.911-5.2a3.526 3.526 0 0 1 5.415-.871 3.508 3.508 0 0 1 .7 5.173 3.465 3.465 0 0 1-2.865 1.528 5.254 5.254 0 0 1-2.333-.628zm-80.845-.938a4.646 4.646 0 0 1-.819-6.816c1.9-2.213 4.143-2.324 6.624-.8 2.029 1.888 2.574 4.061.964 6.507a4.563 4.563 0 0 1-3.844 2.11 4.885 4.885 0 0 1-2.919-.999zm-80.012-1.458a5.435 5.435 0 0 1-1.415-7.829 5.434 5.434 0 0 1 7.535-1.5 5.448 5.448 0 0 1 1.684 7.781 5.493 5.493 0 0 1-4.6 2.575 5.671 5.671 0 0 1-3.198-1.025zm-80.5-1.837a5.46 5.46 0 0 1-.872-7.917 5.436 5.436 0 0 1 7.621-.973 5.441 5.441 0 0 1 1.149 7.878 5.465 5.465 0 0 1-4.386 2.26 5.714 5.714 0 0 1-3.505-1.246zm272.225-1.791a2.891 2.891 0 0 1-.609-4.393c1.2-1.632 2.78-1.53 4.268-.807 1.565 1.492 1.939 3.02.73 4.6a3.039 3.039 0 0 1-2.4 1.355 3.313 3.313 0 0 1-1.983-.753zm-80.364-1a4.59 4.59 0 0 1-1.068-6.507 4.467 4.467 0 0 1 6.266-.89c1.925 1.243 2.361 4.385.921 6.435a4.828 4.828 0 0 1-3.54 1.733 5.08 5.08 0 0 1-2.572-.768zm-80.755-.932a5.5 5.5 0 0 1-1.268-7.59 5.292 5.292 0 0 1 7.276-1.371c2.47 1.385 3.165 5.152 1.579 7.534a5.545 5.545 0 0 1-4.6 2.323 5.215 5.215 0 0 1-2.981-.893zm-79.264-1.5a5.6 5.6 0 0 1-1.375-8.169 5.582 5.582 0 0 1 7.9-1.327 5.585 5.585 0 0 1 1.6 7.85 5.675 5.675 0 0 1-4.778 2.727 5.885 5.885 0 0 1-3.34-1.077zm-80.022-2.113a5.485 5.485 0 0 1-1.151-7.354 5.484 5.484 0 0 1 7.352-1.149 5.482 5.482 0 0 1 1.149 7.352 5.426 5.426 0 0 1-4.356 2.085 5.045 5.045 0 0 1-2.988-.933zm271.544-.863c-2.039-1.4-2.484-3.351-1.116-5.422 1.473-2.227 3.538-2.6 5.711-1.036 2.047 1.469 2.064 3.418 1.042 5.339a4.5 4.5 0 0 1-3.346 1.922 4.062 4.062 0 0 1-2.284-.8zm-80.861-.831c-2.354-1.957-2.878-4.261-1.194-6.865a4.723 4.723 0 0 1 7.12-1.127c2.4 1.953 2.747 4.387.931 6.861a4.551 4.551 0 0 1-3.719 2.135 6.162 6.162 0 0 1-3.131-1zm-80.093-1.7a5.445 5.445 0 0 1-1.371-7.878 5.444 5.444 0 0 1 7.878-1.371 5.444 5.444 0 0 1 1.371 7.878 5.515 5.515 0 0 1-4.527 2.484 5.82 5.82 0 0 1-3.344-1.118zm-80.328-1.923a5.631 5.631 0 0 1-.92-7.714 5.63 5.63 0 0 1 7.713-.922 5.635 5.635 0 0 1 .922 7.717 5.571 5.571 0 0 1-4.373 2.044 5.38 5.38 0 0 1-3.332-1.126zm271.833-1.417a3.342 3.342 0 0 1-.687-4.871 3.383 3.383 0 0 1 5.141-.727c1.623 1.26 1.738 3.079.729 4.928a4.21 4.21 0 0 1-2.982 1.507 3.544 3.544 0 0 1-2.194-.838zm-80.075-1.19a4.308 4.308 0 0 1-1.3-6.434 4.308 4.308 0 0 1 6.432-1.3c2.428 1.59 2.616 3.949 1.387 6.488a5.3 5.3 0 0 1-3.907 2.122 4.69 4.69 0 0 1-2.605-.877zm-80.848-1.023a5.538 5.538 0 0 1-1.056-7.929 5.551 5.551 0 0 1 7.678-.877 5.545 5.545 0 0 1 1.014 7.659 5.506 5.506 0 0 1-4.413 2.188 5.48 5.48 0 0 1-3.216-1.042zm-79.8-2.177a5.435 5.435 0 0 1-1.242-7.84 5.439 5.439 0 0 1 7.844-1.243 5.439 5.439 0 0 1 1.241 7.844 5.485 5.485 0 0 1-4.46 2.384 5.763 5.763 0 0 1-3.383-1.147zm191.138-2.855c-2.081-1.674-2.187-3.813-.558-5.841 1.671-2.083 3.811-2.185 5.841-.559 2.092 1.675 2.065 3.74.6 5.862a4.358 4.358 0 0 1-3.169 1.634 4.351 4.351 0 0 1-2.711-1.098zm-80.741-.566a5.552 5.552 0 0 1-1.109-7.368 5.543 5.543 0 0 1 7.344-1.245 5.541 5.541 0 0 1 1.38 7.321 5.453 5.453 0 0 1-4.532 2.278 5.075 5.075 0 0 1-3.08-.988zm-79.312-1.487a5.506 5.506 0 0 1-1.21-7.909 5.508 5.508 0 0 1 7.885-1.346 5.51 5.51 0 0 1 1.479 7.862 5.591 5.591 0 0 1-4.652 2.6 5.875 5.875 0 0 1-3.5-1.209zm-79.96-1.876a5.6 5.6 0 0 1-1.229-7.346 5.579 5.579 0 0 1 7.616-1.278 5.605 5.605 0 0 1 1.23 7.347 5.51 5.51 0 0 1-4.535 2.251 5.135 5.135 0 0 1-3.08-.976zm271.686-1.094a3.58 3.58 0 0 1-.839-5.445c1.346-1.812 3.273-1.784 5.12-.979 1.838 1.764 2.386 3.693.9 5.637a3.673 3.673 0 0 1-2.912 1.581 3.871 3.871 0 0 1-2.267-.791zm-80.536-1.537c-2.078-1.9-2.6-4.092-.968-6.562a4.642 4.642 0 0 1 6.832-1.113 4.659 4.659 0 0 1 .818 6.878 4.573 4.573 0 0 1-3.525 1.849 6.044 6.044 0 0 1-3.155-1.053zm-80.35-.844a5.435 5.435 0 0 1-1.417-7.829 5.44 5.44 0 0 1 7.852-1.28 5.42 5.42 0 0 1 1.368 7.558 5.5 5.5 0 0 1-4.6 2.576 5.669 5.669 0 0 1-3.201-1.026zm-79.551-2.213a5.534 5.534 0 0 1-1.534-7.848 5.527 5.527 0 0 1 7.6-1.35 5.532 5.532 0 0 1 1.485 7.578 5.541 5.541 0 0 1-4.627 2.468 5.432 5.432 0 0 1-2.922-.851zm190.991-2.36a4.591 4.591 0 0 1-1.2-6.485c1.724-2.054 4.026-2.53 6.222-.995s2.391 3.826 1.216 6.238a5.03 5.03 0 0 1-3.753 1.946 5.109 5.109 0 0 1-2.482-.706zm-81.046-1.132c-2.26-1.764-2.8-5.566-.907-7.647a5.293 5.293 0 0 1 7.335-1.021 5.5 5.5 0 0 1 1.223 7.6 5.593 5.593 0 0 1-4.464 2.106 5.168 5.168 0 0 1-3.185-1.04zm-79.681-1.971a5.434 5.434 0 0 1-1.33-7.828 5.432 5.432 0 0 1 7.826-1.331 5.437 5.437 0 0 1 1.332 7.828 5.49 5.49 0 0 1-4.5 2.437 5.761 5.761 0 0 1-3.325-1.108zm191.669-2.7c-2.243-1.425-2.707-3.48-1.167-5.688a3.591 3.591 0 0 1 5.447-.987c2.069 1.392 2.32 3.3 1.193 5.42a4.24 4.24 0 0 1-3.288 1.968 4.074 4.074 0 0 1-2.182-.719zm-80.41-1.517a4.72 4.72 0 0 1-1.23-7.1c1.918-2.425 4.341-2.821 6.846-1.033 2.522 1.8 2.771 4.2 1.226 6.846a5.138 5.138 0 0 1-3.953 2.233 5.447 5.447 0 0 1-2.886-.951zm-80.11-.8a5.437 5.437 0 0 1-1.139-7.876 5.427 5.427 0 0 1 7.583-1.228 5.434 5.434 0 0 1 1.408 7.829 5.474 5.474 0 0 1-4.488 2.414 5.687 5.687 0 0 1-3.361-1.147zm-79.655-2.442a5.292 5.292 0 0 1-1.253-7.3c1.445-2.46 5.2-3.094 7.557-1.461a5.628 5.628 0 0 1 1.307 7.607 5.658 5.658 0 0 1-4.531 2.209 4.74 4.74 0 0 1-3.078-1.064zm191.236-1.734c-2.293-1.98-3.009-4.233-1.415-6.641a4.307 4.307 0 0 1 6.427-1.326 4.315 4.315 0 0 1 1.331 6.429 4.217 4.217 0 0 1-3.691 2.144 6.88 6.88 0 0 1-2.649-.614zm-81.079-1.412a5.618 5.618 0 0 1-.875-7.728 5.63 5.63 0 0 1 7.429-.974 5.6 5.6 0 0 1 1.154 7.683 5.576 5.576 0 0 1-4.437 2.11 5.26 5.26 0 0 1-3.268-1.1zm-79.762-2.2a5.549 5.549 0 0 1-1.024-7.659 5.533 5.533 0 0 1 7.634-1.16 5.529 5.529 0 0 1 1.295 7.611 5.518 5.518 0 0 1-4.54 2.354 5.476 5.476 0 0 1-3.362-1.155zm191.222-2.668c-2.082-1.672-2.184-3.811-.559-5.841 1.675-2.092 3.741-2.066 5.862-.6 1.966 1.811 2.175 3.854.54 5.885a3.937 3.937 0 0 1-3.059 1.682 4.5 4.5 0 0 1-2.781-1.135zm-80.027-1.09a5.484 5.484 0 0 1-1.434-7.3 5.484 5.484 0 0 1 7.3-1.434 5.482 5.482 0 0 1 1.434 7.3 5.4 5.4 0 0 1-4.477 2.253 5.087 5.087 0 0 1-2.82-.828zm-80.194-1.285a5.44 5.44 0 0 1-1.645-7.8 5.438 5.438 0 0 1 7.852-1.374 5.42 5.42 0 0 1 1.326 7.58 5.487 5.487 0 0 1-4.551 2.48 5.555 5.555 0 0 1-2.979-.894zm110.821-4.689a4.435 4.435 0 0 1-1.027-6.493 4.572 4.572 0 0 1 6.762-1.072 4.435 4.435 0 0 1 1.336 6.074 5.311 5.311 0 0 1-4.288 2.5 4.409 4.409 0 0 1-2.78-1.018zm-79.843-.47a5.6 5.6 0 0 1-1.311-7.646 5.6 5.6 0 0 1 7.646-1.312 5.6 5.6 0 0 1 1.311 7.646 5.552 5.552 0 0 1-4.535 2.279 5.371 5.371 0 0 1-3.108-.976zm-79.7-2.38a5.583 5.583 0 0 1-1.113-7.646 5.619 5.619 0 0 1 7.375-1.065 5.583 5.583 0 0 1 1.113 7.645 5.563 5.563 0 0 1-4.349 2 5.165 5.165 0 0 1-3.022-.943zm190.758-2.356c-1.94-1.827-2.358-4.151-.694-6.271 1.649-2.1 3.941-2.221 6.261-.93 1.916 1.883 2.413 4.019.968 6.31a4.486 4.486 0 0 1-3.784 1.886 3.99 3.99 0 0 1-2.747-1.005zm-79.834-1.348a5.536 5.536 0 0 1-1.3-7.612 5.551 5.551 0 0 1 7.37-1.137 5.544 5.544 0 0 1 1.259 7.342 5.471 5.471 0 0 1-4.48 2.212 5.148 5.148 0 0 1-2.845-.814zm-80.476-1.666a5.6 5.6 0 0 1-1.077-7.7 5.623 5.623 0 0 1 7.4-1.166 5.6 5.6 0 0 1 1.35 7.649 5.547 5.547 0 0 1-4.508 2.229 5.277 5.277 0 0 1-3.161-1.021zm111.247-4.167c-2.5-1.849-2.96-4.249-1.172-6.79 1.676-2.382 3.994-2.78 6.493-1.285a4.686 4.686 0 0 1 1.478 6.759 4.824 4.824 0 0 1-4 2.258 4.669 4.669 0 0 1-2.794-.95zm-80.472-1.069a5.6 5.6 0 0 1-1.447-7.633 5.6 5.6 0 0 1 7.658-1.31 5.628 5.628 0 0 1 1.4 7.361 5.54 5.54 0 0 1-4.667 2.444 5.3 5.3 0 0 1-2.939-.87zm111.031-4.616a4.291 4.291 0 0 1-.891-6.5 4.268 4.268 0 0 1 6.216-.983c2.387 1.65 2.548 4.006 1.247 6.521a5.434 5.434 0 0 1-3.842 1.973 4.509 4.509 0 0 1-2.725-1.019zm-79.392-1.131a5.545 5.545 0 0 1-1.157-7.638 5.586 5.586 0 0 1 7.392-.974 5.551 5.551 0 0 1 1.109 7.369 5.476 5.476 0 0 1-4.41 2.123 5.13 5.13 0 0 1-2.93-.888zm-80.317-1.709a5.544 5.544 0 0 1-1.153-7.36 5.54 5.54 0 0 1 7.337-1.289 5.548 5.548 0 0 1 1.424 7.313 5.46 5.46 0 0 1-4.557 2.3 5.064 5.064 0 0 1-3.047-.973zm110.864-4.237c-2.454-1.934-2.645-4.439-.754-6.859 1.939-2.479 4.367-2.446 6.821-.881 2.346 2.182 2.708 4.569.788 6.99a4.657 4.657 0 0 1-3.639 2.023 5.252 5.252 0 0 1-3.212-1.282zm-80.167-1a5.581 5.581 0 0 1-1.278-7.618 5.6 5.6 0 0 1 7.347-1.229 5.581 5.581 0 0 1 1.278 7.616 5.542 5.542 0 0 1-4.419 2.095 5.181 5.181 0 0 1-2.924-.869zm110.972-4.5a4.31 4.31 0 0 1-.892-6.5c1.739-2.3 4.1-2.386 6.577-.963 1.985 1.989 2.591 4.282.819 6.579a4.545 4.545 0 0 1-3.582 1.983 4.829 4.829 0 0 1-2.918-1.105zm-80.03-1.7a5.481 5.481 0 0 1-1.149-7.352 5.482 5.482 0 0 1 7.352-1.149 5.482 5.482 0 0 1 1.149 7.353 5.42 5.42 0 0 1-4.355 2.084 5.049 5.049 0 0 1-2.993-.945zm31.554-5.167c-2.552-1.761-3.027-4.208-1.27-6.771s4.2-3.021 6.771-1.273 2.854 4.147 1.324 6.816a5.171 5.171 0 0 1-3.937 2.249 5.086 5.086 0 0 1-2.885-1.03zm-80.348-1.345a5.241 5.241 0 0 1-1.3-7.267 5.063 5.063 0 0 1 6.953-1.4c2.409 1.312 3.115 4.877 1.608 7.21a5.289 5.289 0 0 1-4.439 2.292 5.026 5.026 0 0 1-2.818-.844zm111.11-4.1a4.562 4.562 0 0 1-1.246-6.743c1.8-2.275 4.107-2.7 6.486-1.051 2.408 1.671 2.578 3.978 1.287 6.48a5.135 5.135 0 0 1-3.874 2.14 5.142 5.142 0 0 1-2.65-.84zm-80.3-2.309c-2.28-2.093-2.6-4.44-.808-6.936a4.718 4.718 0 0 1 7.171-.712c2.327 2.086 2.457 4.539.544 6.9a4.538 4.538 0 0 1-3.569 1.921 6.131 6.131 0 0 1-3.344-1.187zm30.9-5.34c-2.345-1.731-2.82-3.979-1.349-6.5a4.694 4.694 0 0 1 6.751-1.547 4.73 4.73 0 0 1 1.4 6.789 4.8 4.8 0 0 1-3.973 2.218 4.743 4.743 0 0 1-2.835-.973zm30.924-5.216c-1.929-1.971-2.4-4.178-.68-6.555a4.576 4.576 0 0 1 6.829-.678c2.109 1.977 2.349 4.338.5 6.563a4.354 4.354 0 0 1-3.4 1.781 6.1 6.1 0 0 1-3.251-1.125zm-79.405-1.948c-2.51-1.84-2.98-4.236-1.2-6.787 1.667-2.387 3.982-2.8 6.488-1.31a4.694 4.694 0 0 1 1.5 6.761 4.817 4.817 0 0 1-4.006 2.277 4.685 4.685 0 0 1-2.784-.954zm30.4-5.556c-2.3-1.823-2.66-4.093-1.055-6.547a4.586 4.586 0 0 1 6.821-1.1c2.329 1.828 2.522 4.078 1.371 6.118a5.345 5.345 0 0 1-4.317 2.557 4.509 4.509 0 0 1-2.82-1.042zm30.714-5.457a4.306 4.306 0 0 1-1.024-6.481 4.311 4.311 0 0 1 6.48-1.029c2.372 1.7 2.381 4.066 1.233 6.419a5.681 5.681 0 0 1-3.984 2.074 4.534 4.534 0 0 1-2.705-.999zm-48.516-7.107c-2.312-1.753-2.778-4.056-1.175-6.466 1.623-2.439 3.929-2.65 6.431-1.424 2.264 1.824 2.918 3.987 1.464 6.518a4.567 4.567 0 0 1-3.971 2.3 4.535 4.535 0 0 1-2.749-.942zm30.544-5.536a4.266 4.266 0 0 1-1.139-6.188c1.581-2.434 3.942-2.641 6.5-1.4 2.1 1.9 2.8 4.175 1.114 6.535a4.42 4.42 0 0 1-3.6 2.083 4.942 4.942 0 0 1-2.876-1.044zm-17.858-12.591a4.58 4.58 0 0 1-.916-6.532c1.822-1.945 4.142-2.37 6.269-.713 2.111 1.641 2.234 3.929.953 6.257a5.2 5.2 0 0 1-3.693 1.814 4.912 4.912 0 0 1-2.614-.841z" transform="rotate(104 234.317 269.963) translate(1421.294 5132.605)"/>
    </g>
</svg>
