<svg xmlns="http://www.w3.org/2000/svg" width="24.371" height="24.369" viewBox="0 0 24.371 24.369">
    <path d="M210.5 4.9a2.05 2.05 0 0 1-1.584-3.588l1.073-1.1a.714.714 0 0 1 1.022 0l1.1 1.128A2.048 2.048 0 0 1 210.5 4.9z" transform="translate(-198.314 -.001)"/>
    <path d="M23.657 447H.714c-.394 0-.714.219-.714.489v2.111c0 .27.32.488.714.488h22.943c.394 0 .714-.219.714-.488v-2.117c0-.265-.32-.483-.714-.483z" transform="translate(0 -425.724)"/>
    <path d="M25.838 213.016a2.1 2.1 0 0 0 .946.547 1.741 1.741 0 0 0 1.092-.549 3.3 3.3 0 0 1 2.026-.969 3.3 3.3 0 0 1 2.028.971 1.941 1.941 0 0 0 1.018.552 1.944 1.944 0 0 0 1.02-.554 3.3 3.3 0 0 1 2.032-.969 3.3 3.3 0 0 1 2.028.971 1.941 1.941 0 0 0 1.018.552 1.944 1.944 0 0 0 1.02-.554 3.3 3.3 0 0 1 2.026-.969 3.3 3.3 0 0 1 2.028.971 1.926 1.926 0 0 0 1.018.552 1.924 1.924 0 0 0 1.02-.554 4.054 4.054 0 0 1 .836-.623v-1.251a2.144 2.144 0 0 0-2.145-2.14H27.142A2.144 2.144 0 0 0 25 211.141v1.251a4.058 4.058 0 0 1 .838.624z" transform="translate(-23.81 -199.051)"/>
    <path d="M213.474 123.76v-2.047a.714.714 0 0 0-.714-.714h-3.046a.714.714 0 0 0-.714.714v2.047z" transform="translate(-199.052 -115.239)"/>
    <path d="M46.989 308.425v-4.717a4.233 4.233 0 0 1-.394.3 2.329 2.329 0 0 1-2.862.041 4.09 4.09 0 0 1-.628-.5 1.941 1.941 0 0 0-1.019-.549 1.944 1.944 0 0 0-1.02.554 3.3 3.3 0 0 1-2.026.969 3.3 3.3 0 0 1-2.028-.971 1.941 1.941 0 0 0-1.018-.552 1.944 1.944 0 0 0-1.02.554 3.3 3.3 0 0 1-2.026.969 3.3 3.3 0 0 1-2.028-.971A1.941 1.941 0 0 0 29.9 303a1.944 1.944 0 0 0-1.02.554 4.08 4.08 0 0 1-.635.5 2.328 2.328 0 0 1-2.857-.05 4.244 4.244 0 0 1-.39-.3v4.717h21.991z" transform="translate(-23.808 -288.578)"/>
</svg>
