<svg xmlns="http://www.w3.org/2000/svg" width="72.094" height="70.891" viewBox="0 0 72.094 70.891">
    <g>
        <path d="M2892.121 1419.5a33.941 33.941 0 0 1-12.953-12.7 37.159 37.159 0 0 1 0-36.249 33.959 33.959 0 0 1 12.953-12.7 38.856 38.856 0 0 1 36.749 0 34 34 0 0 1 12.953 12.7 37.17 37.17 0 0 1 0 36.249 33.981 33.981 0 0 1-12.953 12.7 38.858 38.858 0 0 1-36.749 0zm35.695-1.657a32.109 32.109 0 0 0 12.25-12.049 35.038 35.038 0 0 0 0-34.241 32.117 32.117 0 0 0-12.25-12.049 36.523 36.523 0 0 0-34.64 0 32.09 32.09 0 0 0-12.25 12.049 35.036 35.036 0 0 0 0 34.241 32.081 32.081 0 0 0 12.25 12.049 36.524 36.524 0 0 0 34.64 0z" transform="translate(-2874.448 -1353.225)"/>
        <path d="M3060.742 1684.98l7.359-4.249 7.359-4.274-7.359-4.248-7.359 4.248-7.359-4.248-7.359 4.248 7.359 4.274z" transform="translate(-3024.052 -1635.949)"/>
        <path d="M3060.742 1565.772l7.359-4.249 7.359-4.275-7.36-4.248-7.359 4.248-7.359-4.248-7.359 4.248 7.359 4.275z" transform="translate(-3024.052 -1528.273)"/>
    </g>
</svg>
