<svg xmlns="http://www.w3.org/2000/svg" width="19.68" height="17.21" viewBox="0 0 19.68 17.21">
    <path d="M19.409 28.75l-8.07 8.07a2.123 2.123 0 0 1-3 0L.27 28.75A2.109 2.109 0 0 0 0 29.785v12.969a2.123 2.123 0 0 0 2.12 2.121h15.439a2.123 2.123 0 0 0 2.12-2.121V29.785a2.109 2.109 0 0 0-.27-1.035zm0 0" transform="translate(0 -27.664)"/>
    <path d="M37.688 8.841L45.758.77A2.107 2.107 0 0 0 44.724.5H29.285a2.108 2.108 0 0 0-1.035.27l8.07 8.07a.969.969 0 0 0 1.368.001zm0 0" transform="translate(-27.164 -.5)"/>
</svg>
