<svg xmlns="http://www.w3.org/2000/svg" id="Component_104_1" width="107.074" height="107.056" viewBox="0 0 107.074 107.056">
    <defs>
        <style>
            .cls-1{fill:#0f358e}
        </style>
    </defs>
    <g id="internet-security">
        <path id="Path_22373" d="M193.273 18.681A41.071 41.071 0 0 0 119.5 29.422l3.423 1.01a37.077 37.077 0 0 1 4.027-8.993h12.822a85.061 85.061 0 0 0-1.921 11.442l3.552.347a81.514 81.514 0 0 1 2.042-11.789h13.641v17.176h3.569V21.439h13.65a80.91 80.91 0 0 1 2.4 17.845h-12.48v3.569h12.483a80.91 80.91 0 0 1-2.4 17.845H164v3.569h9.326a83.491 83.491 0 0 1-5.168 13.118 37.542 37.542 0 0 1-5.875 1.005l.321 3.555a41.048 41.048 0 0 0 30.667-63.264zM140.7 17.87h-11.262a37.332 37.332 0 0 1 15.486-11.6 86.738 86.738 0 0 0-4.224 11.6zm16.383 0h-12.662a83.637 83.637 0 0 1 5.161-13.116 37.59 37.59 0 0 1 7.5-1.114zM196.3 39.284h-16.019a84.415 84.415 0 0 0-2.3-17.845h12.809a37.281 37.281 0 0 1 5.51 17.845zM160.656 17.87V3.641a37.6 37.6 0 0 1 7.505 1.113 83.5 83.5 0 0 1 5.167 13.117zm12.166-11.6a37.332 37.332 0 0 1 15.48 11.6h-11.256a86.665 86.665 0 0 0-4.224-11.595zm5.572 66.788a37.488 37.488 0 0 1-5.573 2.8 86.671 86.671 0 0 0 4.225-11.6H188.3a37.854 37.854 0 0 1-9.906 8.805zM190.79 60.7h-12.808a84.415 84.415 0 0 0 2.3-17.845H196.3a37.284 37.284 0 0 1-5.51 17.845z" class="cls-1" transform="translate(-92.844 -.04)"/>
        <path id="Path_22374" d="M66.027 148.465h-1.963a40.6 40.6 0 0 1-28.9-11.969 1.785 1.785 0 0 0-2.524 0 40.6 40.6 0 0 1-28.9 11.969H1.785A1.785 1.785 0 0 0 0 150.249v17.734a44.456 44.456 0 0 0 22.855 38.842l10.184 5.658a1.785 1.785 0 0 0 1.733 0l10.184-5.658a44.456 44.456 0 0 0 22.855-38.842v-17.734a1.784 1.784 0 0 0-1.784-1.784zm-1.785 19.518A40.887 40.887 0 0 1 43.224 203.7l-9.318 5.176-9.318-5.176a40.888 40.888 0 0 1-21.019-35.717v-15.949h.178a44.216 44.216 0 0 0 17-3.382 44.182 44.182 0 0 0 13.154-8.418 44.44 44.44 0 0 0 30.158 11.8h.178z" class="cls-1" transform="translate(0 -105.651)"/>
        <path id="Path_22375" d="M83.933 188.322a47.645 47.645 0 0 1-24.082-9.541 1.785 1.785 0 0 0-2.167 0 47.645 47.645 0 0 1-24.084 9.541A1.784 1.784 0 0 0 32 190.1v10.86a37.317 37.317 0 0 0 19.184 32.6l6.718 3.732a1.785 1.785 0 0 0 1.733 0l6.717-3.732a37.317 37.317 0 0 0 19.184-32.6V190.1a1.784 1.784 0 0 0-1.603-1.778zm-1.967 12.635a33.746 33.746 0 0 1-17.347 29.483l-5.851 3.251-5.851-3.251a33.746 33.746 0 0 1-17.347-29.483v-9.274a51.214 51.214 0 0 0 23.2-9.26 51.214 51.214 0 0 0 23.2 9.26z" class="cls-1" transform="translate(-24.862 -138.626)"/>
    </g>
    <g id="Group_13222" transform="translate(-671.67 -512.048)">
        <g id="Group_13170" transform="translate(696.623 573.876)">
            <path id="Path_21778" d="M2636.92 3395.5l4.438-2.562 4.438-2.578-4.438-2.562-4.438 2.562-4.438-2.562-4.438 2.562 4.438 2.578z" class="cls-1" transform="translate(-2628.044 -3387.793)"/>
        </g>
        <g id="Group_13171" transform="translate(696.623 580.943)">
            <path id="Path_21779" d="M2641.359 3435.549l-4.438 2.563-4.438-2.562-4.438 2.563 4.438 2.577 4.438 2.563 4.438-2.563 4.438-2.577-4.438-2.562z" class="cls-1" transform="translate(-2628.044 -3435.549)"/>
        </g>
    </g>
</svg>
