<svg xmlns="http://www.w3.org/2000/svg" width="161.452" height="161.425" viewBox="0 0 161.452 161.425">
    <g>
        <path d="M230.739 28.148A61.929 61.929 0 0 0 119.5 44.344l5.162 1.523a55.905 55.905 0 0 1 6.072-13.56h19.334a128.259 128.259 0 0 0-2.9 17.253l5.356.523a122.91 122.91 0 0 1 3.078-17.776h20.569v25.9h5.382v-25.9h20.582a122 122 0 0 1 3.622 26.908h-18.819V64.6h18.823a122 122 0 0 1-3.622 26.9H186.6v5.382h14.063a125.891 125.891 0 0 1-7.792 19.779 56.609 56.609 0 0 1-8.859 1.516l.484 5.36a61.894 61.894 0 0 0 46.241-95.393zm-79.268-1.223h-16.985a56.291 56.291 0 0 1 23.35-17.487 130.787 130.787 0 0 0-6.365 17.487zm24.7 0h-19.1a126.117 126.117 0 0 1 7.789-19.777 56.681 56.681 0 0 1 11.316-1.679zm59.129 32.29h-24.151a127.285 127.285 0 0 0-3.467-26.908H227a56.214 56.214 0 0 1 8.3 26.908zm-53.745-32.29V5.469a56.692 56.692 0 0 1 11.317 1.678 125.909 125.909 0 0 1 7.791 19.778zM199.9 9.441a56.292 56.292 0 0 1 23.342 17.484h-16.97A130.679 130.679 0 0 0 199.9 9.441zm8.4 100.707a56.529 56.529 0 0 1-8.4 4.225 130.688 130.688 0 0 0 6.371-17.487h16.963a57.077 57.077 0 0 1-14.934 13.262zM227 91.5h-19.318a127.285 127.285 0 0 0 3.467-26.9H235.3a56.219 56.219 0 0 1-8.3 26.9z" transform="translate(-79.306 -.04)"/>
        <path d="M99.56 154.809H96.6a61.217 61.217 0 0 1-43.571-18.048 2.691 2.691 0 0 0-3.805 0 61.217 61.217 0 0 1-43.573 18.048h-2.96A2.691 2.691 0 0 0 0 157.5v26.74a67.034 67.034 0 0 0 34.462 58.568l15.357 8.531a2.691 2.691 0 0 0 2.613 0l15.357-8.531a67.034 67.034 0 0 0 34.462-58.568V157.5a2.691 2.691 0 0 0-2.691-2.691zm-2.691 29.431a61.653 61.653 0 0 1-31.694 53.86l-14.05 7.805-14.05-7.805a61.653 61.653 0 0 1-31.693-53.861V160.19h.269a66.67 66.67 0 0 0 25.64-5.1 66.62 66.62 0 0 0 19.834-12.69A67.009 67.009 0 0 0 96.6 160.19h.269z" transform="translate(0 -90.252)"/>
        <path d="M110.308 193.354A71.842 71.842 0 0 1 74 178.967a2.691 2.691 0 0 0-3.267 0 71.842 71.842 0 0 1-36.312 14.387A2.691 2.691 0 0 0 32 196.031v16.375a56.268 56.268 0 0 0 28.926 49.16l10.13 5.627a2.691 2.691 0 0 0 2.613 0l10.131-5.628a56.268 56.268 0 0 0 28.926-49.16v-16.374a2.691 2.691 0 0 0-2.418-2.677zm-2.965 19.052a50.884 50.884 0 0 1-26.157 44.456l-8.823 4.9-8.823-4.9a50.884 50.884 0 0 1-26.157-44.456v-13.985a77.223 77.223 0 0 0 34.98-13.963 77.223 77.223 0 0 0 34.98 13.963z" transform="translate(-21.237 -118.419)"/>
    </g>
    <g>
        <path d="M2641.428 3399.407l6.692-3.864 6.692-3.887-6.692-3.863-6.692 3.863-6.692-3.863-6.692 3.863 6.692 3.887z" transform="translate(37.626 93.229) translate(-2628.044 -3387.793)"/>
    </g>
    <g>
        <path d="M2648.121 3435.549l-6.692 3.864-6.692-3.864-6.692 3.864 6.692 3.886 6.692 3.864 6.692-3.864 6.692-3.886-6.692-3.864z" transform="translate(37.626 103.886) translate(-2628.044 -3435.549)"/>
    </g>
</svg>
