<svg xmlns="http://www.w3.org/2000/svg" width="41.388" height="40.696" data-name="MAIN LOGO" viewBox="0 0 41.388 40.696">
    <path d="M10.146 38.044a19.487 19.487 0 0 1-7.436-7.292 21.332 21.332 0 0 1 0-20.809 19.5 19.5 0 0 1 7.436-7.292 22.308 22.308 0 0 1 21.1 0 19.519 19.519 0 0 1 7.436 7.292 21.336 21.336 0 0 1 0 20.809 19.507 19.507 0 0 1-7.436 7.292 22.31 22.31 0 0 1-21.1 0zm20.492-.951a18.433 18.433 0 0 0 7.033-6.917 20.112 20.112 0 0 0 0-19.657 18.438 18.438 0 0 0-7.033-6.917 20.968 20.968 0 0 0-19.887 0 18.421 18.421 0 0 0-7.033 6.917 20.112 20.112 0 0 0 0 19.657 18.416 18.416 0 0 0 7.033 6.917 20.968 20.968 0 0 0 19.887 0z" data-name="Path 638"/>
    <path d="M21.063 28.148l4.225-2.439 4.225-2.453-4.225-2.439-4.225 2.439-4.225-2.439-4.225 2.439 4.225 2.453z" data-name="Path 639"/>
    <path d="M21.063 21.527l4.225-2.439 4.225-2.454-4.224-2.439-4.225 2.439-4.225-2.439-4.225 2.439 4.225 2.454z" data-name="Path 640"/>
</svg>
