<svg xmlns="http://www.w3.org/2000/svg" id="Component_52_2" width="60" height="60" data-name="Component 52 – 2" viewBox="0 0 60 60">
    <circle id="Ellipse_2374" cx="30" cy="30" r="30" fill="#48c6df" data-name="Ellipse 2374"/>
    <g id="arrow-right2" transform="translate(18 19)">
        <path id="arrow-right2-2" fill="#fff" d="M17.083 24.837l8.661-8.9a1.814 1.814 0 0 0 0-2.517l-8.661-8.9a1.7 1.7 0 0 0-2.449 0 1.814 1.814 0 0 0 0 2.517l5.7 5.861H3.732a1.781 1.781 0 0 0 0 3.56h16.606l-5.7 5.861a1.814 1.814 0 0 0 0 2.517 1.7 1.7 0 0 0 2.449 0z" data-name="arrow-right2" transform="translate(-2 -4)"/>
    </g>
</svg>
