<svg xmlns="http://www.w3.org/2000/svg" id="Component_108_1" width="99.321" height="99.321" viewBox="0 0 99.321 99.321">
    <defs>
        <style>
            .cls-1{fill:#0f358e}
        </style>
    </defs>
    <path id="Path_22344" d="M2.8 72.422l2.191-2.483a4.97 4.97 0 0 1-1.681-3.725V8.277a4.972 4.972 0 0 1 4.967-4.966h82.767a4.972 4.972 0 0 1 4.966 4.966v57.937a4.972 4.972 0 0 1-4.966 4.966H62.9v3.311h28.144a8.286 8.286 0 0 0 8.277-8.277V8.277A8.286 8.286 0 0 0 91.044 0H8.277A8.286 8.286 0 0 0 0 8.277v57.937a8.284 8.284 0 0 0 2.8 6.208z" class="cls-1"/>
    <path id="Path_22345" d="M40 32h3.311v3.311H40z" class="cls-1" transform="translate(-31.723 -25.379)"/>
    <path id="Path_22346" d="M72 32h3.311v3.311H72z" class="cls-1" transform="translate(-57.102 -25.379)"/>
    <path id="Path_22347" d="M104 32h3.311v3.311H104z" class="cls-1" transform="translate(-82.481 -25.379)"/>
    <path id="Path_22348" d="M40 64h82.768v3.311H40z" class="cls-1" transform="translate(-31.723 -50.757)"/>
    <path id="Path_22349" d="M339.588 112a11.587 11.587 0 1 0 11.587 11.587A11.588 11.588 0 0 0 339.588 112zm0 19.864a8.277 8.277 0 1 1 8.277-8.277 8.277 8.277 0 0 1-8.277 8.277z" class="cls-1" transform="translate(-260.131 -88.825)"/>
    <path id="Path_22350" d="M364.275 146.343l-5.451 5.451-2.14-2.14-2.341 2.341 3.311 3.311a1.655 1.655 0 0 0 2.341 0l6.621-6.621z" class="cls-1" transform="translate(-281.023 -116.061)"/>
    <path id="Path_22351" d="M344 240h16.553v3.311H344z" class="cls-1" transform="translate(-272.82 -190.339)"/>
    <path id="Path_22352" d="M344 272h16.553v3.311H344z" class="cls-1" transform="translate(-272.82 -215.719)"/>
    <path id="Path_22353" d="M195.587 112a11.587 11.587 0 1 0 11.587 11.587A11.587 11.587 0 0 0 195.587 112zm0 19.864a8.277 8.277 0 1 1 8.277-8.277 8.277 8.277 0 0 1-8.277 8.277z" class="cls-1" transform="translate(-145.927 -88.825)"/>
    <path id="Path_22354" d="M220.275 146.343l-5.451 5.451-2.14-2.14-2.341 2.341 3.311 3.311a1.655 1.655 0 0 0 2.341 0l6.621-6.621z" class="cls-1" transform="translate(-166.819 -116.061)"/>
    <path id="Path_22355" d="M200 240h16.554v3.311H200z" class="cls-1" transform="translate(-158.616 -190.339)"/>
    <path id="Path_22356" d="M200 272h16.554v3.311H200z" class="cls-1" transform="translate(-158.616 -215.719)"/>
    <path id="Path_22357" d="M51.587 115.305a8.271 8.271 0 0 1 6.9 3.707l2.757-1.833A11.586 11.586 0 0 0 40 123.582a11.708 11.708 0 0 0 .16 1.93l3.265-.548a8.376 8.376 0 0 1-.115-1.382 8.286 8.286 0 0 1 8.277-8.277z" class="cls-1" transform="translate(-31.723 -88.819)"/>
    <path id="Path_22358" d="M1.655 226.185h46.35a1.642 1.642 0 0 0 .763-.187 16.287 16.287 0 0 0 11.882-8.089h8.875a1.656 1.656 0 0 0 1.171-.485l2.14-2.14 2.14 2.14a1.655 1.655 0 0 0 1.171.485h3.311a1.655 1.655 0 0 0 1.171-.485l2.14-2.14 2.14 2.14a1.655 1.655 0 0 0 1.171.485h3.311a1.655 1.655 0 0 0 1.377-.737l3.311-4.966a1.655 1.655 0 0 0 0-1.837l-3.313-4.969a1.655 1.655 0 0 0-1.377-.737H60.65c-2.518-4.854-8.339-8.277-14.3-8.277a14.812 14.812 0 0 0-8.272 2.514l-1.132-.451a3.962 3.962 0 0 1-.455-.21l-.041-.021a6.115 6.115 0 0 1-1.783-9.529 13.189 13.189 0 0 0 3.408-8.857v-6.141a13.857 13.857 0 0 0-7.61-12.426 12.565 12.565 0 0 0-5.216-1.3 12.994 12.994 0 0 0-5.03.83 12.573 12.573 0 0 0-3.756 2.162 13.285 13.285 0 0 0-4.873 10.25v6.621a13.279 13.279 0 0 0 3.41 8.867 6.114 6.114 0 0 1 .505 7.5l-.021.031a5.608 5.608 0 0 1-2.259 1.985l-.053.027a3.952 3.952 0 0 1-.455.21l-.021.008-7.5 3A8.262 8.262 0 0 0 0 209.152v15.378a1.655 1.655 0 0 0 1.655 1.655zM46.35 199.7c5 0 10.036 3.114 11.709 7.242a1.655 1.655 0 0 0 1.534 1.035H88.5l2.207 3.311L88.5 214.6h-1.736l-2.826-2.826a1.655 1.655 0 0 0-2.341 0l-2.826 2.826h-1.94l-2.826-2.826a1.655 1.655 0 0 0-2.341 0l-2.825 2.826h-9.247a1.655 1.655 0 0 0-1.534 1.035c-1.673 4.129-6.706 7.242-11.708 7.242a11.587 11.587 0 1 1 0-23.175zm-43.039 9.452a4.963 4.963 0 0 1 3.114-4.621l7.489-2.992a7.21 7.21 0 0 0 .8-.367 9 9 0 0 0 3.532-3.118 9.424 9.424 0 0 0-.791-11.578 9.687 9.687 0 0 1-1.585-2.375l-.009-.019a9.668 9.668 0 0 1-.961-4.245v-6.621a9.975 9.975 0 0 1 3.653-7.682l.031-.026a9.293 9.293 0 0 1 2.8-1.6 9.691 9.691 0 0 1 3.766-.622 9.287 9.287 0 0 1 3.858.958 10.529 10.529 0 0 1 5.761 9.456v6.141a9.884 9.884 0 0 1-2.55 6.635 9.425 9.425 0 0 0 2.73 14.7c.111.059.223.113.334.166a14.87 14.87 0 0 0 1.092 21q.309.278.633.539H3.311z" class="cls-1" transform="translate(0 -126.864)"/>
    <path id="Path_22359" d="M188.966 393.932a4.966 4.966 0 1 0-4.966-4.966 4.966 4.966 0 0 0 4.966 4.966zm0-6.621a1.655 1.655 0 1 1-1.655 1.655 1.655 1.655 0 0 1 1.655-1.655z" class="cls-1" transform="translate(-145.927 -304.543)"/>
</svg>
