<svg xmlns="http://www.w3.org/2000/svg" width="22" height="17.876" viewBox="0 0 22 17.876">
    <path fill="#1da1f2" d="M81.919 116.326a12.756 12.756 0 0 0 12.843-12.843c0-.2 0-.39-.013-.583A9.184 9.184 0 0 0 97 100.564a9.009 9.009 0 0 1-2.592.71 4.529 4.529 0 0 0 1.984-2.5 9.045 9.045 0 0 1-2.866 1.1 4.518 4.518 0 0 0-7.692 4.117 12.814 12.814 0 0 1-9.3-4.716 4.517 4.517 0 0 0 1.4 6.025 4.48 4.48 0 0 1-2.049-.565v.057a4.515 4.515 0 0 0 3.621 4.425 4.506 4.506 0 0 1-2.038.077 4.519 4.519 0 0 0 4.217 3.135 9.057 9.057 0 0 1-5.606 1.936A9.189 9.189 0 0 1 75 114.3a12.778 12.778 0 0 0 6.919 2.024" transform="translate(-75 -98.45)"/>
</svg>
