<svg xmlns="http://www.w3.org/2000/svg" id="Component_1049_6" width="47" height="47" data-name="Component 1049 – 6" viewBox="0 0 47 47">
    <defs>
        <linearGradient id="linear-gradient" x1="1" x2="0" y1="1.374" y2="-.296" gradientUnits="objectBoundingBox">
            <stop offset="0" stop-color="#fad961"/>
            <stop offset="1" stop-color="#f76b1c"/>
        </linearGradient>
    </defs>
    <rect id="Rectangle_1714" width="47" height="47" fill="#482cc8" data-name="Rectangle 1714" rx="13"/>
    <g id="Group" transform="translate(7.884 6.025)">
        <g id="Group-2" data-name="Group" transform="rotate(-45 17.636 7.305)">
            <path id="Rectangle_2" fill="#fff" d="M0 7.553A7.553 7.553 0 0 1 7.553 0h5.282a5.411 5.411 0 0 1 5.04 5.04 5.411 5.411 0 0 1-5.04 5.04H3.85A5.226 5.226 0 0 0 0 11.832z" data-name="Rectangle 2" transform="rotate(-90 8.937 8.937)"/>
            <path id="Rectangle_2-2" fill="url(#linear-gradient)" d="M0 0h14.853a5.79 5.79 0 0 1 5.79 5.79 5.79 5.79 0 0 1-5.79 5.79H5.79A5.79 5.79 0 0 1 0 5.79V0z" data-name="Rectangle 2" transform="translate(.018 10.322)"/>
        </g>
    </g>
</svg>
