<?xml version="1.0" encoding="utf-8"?>
<!-- Generator: Adobe Illustrator 25.0.0, SVG Export Plug-In . SVG Version: 6.00 Build 0)  -->
<svg version="1.1" id="Layer_1" xmlns="http://www.w3.org/2000/svg" xmlns:xlink="http://www.w3.org/1999/xlink" x="0px" y="0px"
	 viewBox="0 0 500 500" style="enable-background:new 0 0 500 500;" xml:space="preserve">
<style type="text/css">
	.st0{fill:#0F358E;}
</style>
<g>
	<path class="st0" d="M495.51,231.23C487.15,121.2,405.62,31.17,299.33,9.32c-16.17-3.32-32.91-5.08-50.05-5.08
		c-67,0-127.83,26.82-172.29,70.24C31.29,119.1,2.88,181.26,2.88,249.92v68.18c0,22.92,17.98,40.86,40.93,40.86
		c22.95,0,40.93-17.95,40.93-40.86v-68.18c0-90.56,73.93-164.23,164.81-164.23s164.81,73.67,164.81,164.23v37.04v31.14
		c0,22.92,17.98,40.86,40.93,40.86s40.93-17.95,40.93-40.86v-68.18C496.22,243.63,495.97,237.4,495.51,231.23z"/>
	<path class="st0" d="M454.68,413.87c-45.58,0-83.69-32.02-93.28-74.73c-1.52-6.77-2.35-13.81-2.35-21.04v-68.18
		c0-60.13-49.38-109.04-109.51-109.04S140.04,189.8,140.04,249.92v68.18c0,52.81-42.64,95.77-95.45,95.77
		c-22.91,0-40.7,17.95-40.7,40.86c0,22.92,17.77,40.86,40.69,40.86c97.87,0,177.32-79.63,177.32-177.5v-68.18
		c0-15.47,12.18-27.59,27.65-27.59s27.65,12.12,27.65,27.59v68.18c0,41.29,14.25,79.31,38.03,109.5c32.58,41.36,83.09,68,139.67,68
		c22.91,0,41.03-17.95,41.03-40.86C495.93,431.77,478.33,414.2,454.68,413.87z"/>
</g>
</svg>
